<?xml version="1.0" standalone="no"?>
 <!DOCTYPE svg PUBLIC "-//W3C//DTD SVG 1.1//EN" 
 "http://www.w3.org/Graphics/SVG/1.1/DTD/svg11.dtd"> 
<svg
  xmlns:svg="http://www.w3.org/2000/svg"
  xmlns="http://www.w3.org/2000/svg"
  xmlns:xlink="http://www.w3.org/1999/xlink"
  version="1.1"
  width="419.9890mm" height="297.0022mm" viewBox="0.0000 0.0000 419.9890 297.0022">
<title>SVG Image created as PREH-Commander-F_Cu.svg date 2025/03/07 09:33:01 </title>
  <desc>Image generated by PCBNEW </desc>
<g style="fill:#000000; fill-opacity:1.0000;stroke:#000000; stroke-opacity:1.0000;
stroke-linecap:round; stroke-linejoin:round;"
 transform="translate(0 0) scale(1 1)">
</g>
<g style="fill:none; 
stroke:#000000; stroke-width:0.2000; stroke-opacity:1; 
stroke-linecap:round; stroke-linejoin:round;">
<path d="M218.5000 157.0000
L148.5000 157.0000
" />
<path d="M157.9683 201.2136 A6.5015 6.5015 0.0 0 0 149.2220 209.9774" />
<path d="M159.2711 214.0711 A1.9799 1.9799 0.0 0 0 162.0711 211.2711" />
<circle cx="148.6008" cy="213.3984" r="1.5000" /> 
<path d="M160.7802 209.9763 A6.5015 6.5015 0.0 1 0 157.9781 212.7781" />
<circle cx="161.4008" cy="200.5984" r="1.5000" /> 
<path d="M218.5000 257.0000 A2.5000 2.5000 0.0 0 0 221.0000 254.5000" />
<path d="M178.2711 233.0694 A1.9799 1.9799 0.0 0 0 181.0711 230.2694" />
<path d="M179.7802 228.9747 A6.5015 6.5015 0.0 1 0 176.9781 231.7765" />
<path d="M176.9683 220.2120 A6.5015 6.5015 0.0 0 0 168.2220 228.9757" />
<circle cx="180.4008" cy="219.5967" r="1.5000" /> 
<circle cx="167.6008" cy="232.3967" r="1.5000" /> 
<circle cx="167.6008" cy="194.3984" r="1.5000" /> 
<circle cx="180.4008" cy="181.5984" r="1.5000" /> 
<path d="M179.7802 190.9763 A6.5015 6.5015 0.0 1 0 176.9781 193.7781" />
<path d="M178.2711 195.0711 A1.9799 1.9799 0.0 0 0 181.0711 192.2711" />
<path d="M176.9683 182.2136 A6.5015 6.5015 0.0 0 0 168.2220 190.9774" />
<path d="M148.5000 157.0000 A2.5000 2.5000 0.0 0 0 146.0000 159.5000" />
<path d="M221.0000 254.5000
L221.0000 159.5000
" />
<path d="M197.2711 252.0678 A1.9799 1.9799 0.0 0 0 200.0711 249.2678" />
<circle cx="186.6008" cy="251.3951" r="1.5000" /> 
<circle cx="199.4008" cy="238.5951" r="1.5000" /> 
<path d="M198.7802 247.9730 A6.5015 6.5015 0.0 1 0 195.9781 250.7748" />
<path d="M195.9683 239.2103 A6.5015 6.5015 0.0 0 0 187.2220 247.9741" />
<path d="M221.0000 159.5000 A2.5000 2.5000 0.0 0 0 218.5000 157.0000" />
<path d="M148.5000 257.0000
L218.5000 257.0000
" />
<path d="M159.2711 233.0711 A1.9799 1.9799 0.0 0 0 162.0711 230.2711" />
<path d="M157.9683 220.2136 A6.5015 6.5015 0.0 0 0 149.2220 228.9774" />
<path d="M160.7802 228.9763 A6.5015 6.5015 0.0 1 0 157.9781 231.7781" />
<circle cx="148.6008" cy="232.3984" r="1.5000" /> 
<circle cx="161.4008" cy="219.5984" r="1.5000" /> 
<path d="M146.0000 254.5000 A2.5000 2.5000 0.0 0 0 148.5000 257.0000" />
<path d="M216.2711 176.0711 A1.9799 1.9799 0.0 0 0 219.0711 173.2711" />
<path d="M217.7802 171.9763 A6.5015 6.5015 0.0 1 0 214.9781 174.7781" />
<circle cx="218.4008" cy="162.5984" r="1.5000" /> 
<circle cx="205.6008" cy="175.3984" r="1.5000" /> 
<path d="M214.9683 163.2136 A6.5015 6.5015 0.0 0 0 206.2220 171.9774" />
<path d="M159.2711 195.0711 A1.9799 1.9799 0.0 0 0 162.0711 192.2711" />
<path d="M160.7802 190.9763 A6.5015 6.5015 0.0 1 0 157.9781 193.7781" />
<path d="M157.9683 182.2136 A6.5015 6.5015 0.0 0 0 149.2220 190.9774" />
<circle cx="161.4008" cy="181.5984" r="1.5000" /> 
<circle cx="148.6008" cy="194.3984" r="1.5000" /> 
<path d="M214.9683 220.2136 A6.5015 6.5015 0.0 0 0 206.2220 228.9774" />
<circle cx="218.4008" cy="219.5984" r="1.5000" /> 
<path d="M217.7802 228.9763 A6.5015 6.5015 0.0 1 0 214.9781 231.7781" />
<path d="M216.2711 233.0711 A1.9799 1.9799 0.0 0 0 219.0711 230.2711" />
<circle cx="205.6008" cy="232.3984" r="1.5000" /> 
<circle cx="199.4008" cy="162.5984" r="1.5000" /> 
<path d="M195.9683 163.2136 A6.5015 6.5015 0.0 0 0 187.2220 171.9774" />
<path d="M197.2711 176.0711 A1.9799 1.9799 0.0 0 0 200.0711 173.2711" />
<path d="M198.7802 171.9763 A6.5015 6.5015 0.0 1 0 195.9781 174.7781" />
<circle cx="186.6008" cy="175.3984" r="1.5000" /> 
<path d="M160.7802 247.9763 A6.5015 6.5015 0.0 1 0 157.9781 250.7781" />
<circle cx="148.6008" cy="251.3984" r="1.5000" /> 
<circle cx="161.4008" cy="238.5984" r="1.5000" /> 
<path d="M159.2711 252.0711 A1.9799 1.9799 0.0 0 0 162.0711 249.2711" />
<path d="M157.9683 239.2136 A6.5015 6.5015 0.0 0 0 149.2220 247.9774" />
<circle cx="205.6008" cy="251.3984" r="1.5000" /> 
<path d="M216.2711 252.0711 A1.9799 1.9799 0.0 0 0 219.0711 249.2711" />
<circle cx="218.4008" cy="238.5984" r="1.5000" /> 
<path d="M217.7802 247.9763 A6.5015 6.5015 0.0 1 0 214.9781 250.7781" />
<path d="M214.9683 239.2136 A6.5015 6.5015 0.0 0 0 206.2220 247.9774" />
<circle cx="218.4008" cy="200.5984" r="1.5000" /> 
<path d="M216.2711 214.0711 A1.9799 1.9799 0.0 0 0 219.0711 211.2711" />
<path d="M214.9683 201.2136 A6.5015 6.5015 0.0 0 0 206.2220 209.9774" />
<path d="M217.7802 209.9763 A6.5015 6.5015 0.0 1 0 214.9781 212.7781" />
<circle cx="205.6008" cy="213.3984" r="1.5000" /> 
<path d="M146.0000 159.5000
L146.0000 254.5000
" />
<path d="M176.9683 201.2136 A6.5015 6.5015 0.0 0 0 168.2220 209.9774" />
<circle cx="180.4008" cy="200.5984" r="1.5000" /> 
<circle cx="167.6008" cy="213.3984" r="1.5000" /> 
<path d="M179.7802 209.9763 A6.5015 6.5015 0.0 1 0 176.9781 212.7781" />
<path d="M178.2711 214.0711 A1.9799 1.9799 0.0 0 0 181.0711 211.2711" />
<path d="M195.9683 201.2136 A6.5015 6.5015 0.0 0 0 187.2220 209.9774" />
<circle cx="199.4008" cy="200.5984" r="1.5000" /> 
<path d="M197.2711 214.0711 A1.9799 1.9799 0.0 0 0 200.0711 211.2711" />
<circle cx="186.6008" cy="213.3984" r="1.5000" /> 
<path d="M198.7802 209.9763 A6.5015 6.5015 0.0 1 0 195.9781 212.7781" />
<circle cx="167.6008" cy="175.3984" r="1.5000" /> 
<path d="M179.7802 171.9763 A6.5015 6.5015 0.0 1 0 176.9781 174.7781" />
<circle cx="180.4008" cy="162.5984" r="1.5000" /> 
<path d="M178.2711 176.0711 A1.9799 1.9799 0.0 0 0 181.0711 173.2711" />
<path d="M176.9683 163.2136 A6.5015 6.5015 0.0 0 0 168.2220 171.9774" />
<path d="M159.2891 176.0530 A1.9799 1.9799 0.0 0 0 162.0891 173.2530" />
<circle cx="148.6189" cy="175.3804" r="1.5000" /> 
<path d="M157.9863 163.1956 A6.5015 6.5015 0.0 0 0 149.2400 171.9594" />
<path d="M160.7982 171.9583 A6.5015 6.5015 0.0 1 0 157.9961 174.7601" />
<circle cx="161.4189" cy="162.5804" r="1.5000" /> 
<path d="M197.2711 195.0711 A1.9799 1.9799 0.0 0 0 200.0711 192.2711" />
<path d="M195.9683 182.2136 A6.5015 6.5015 0.0 0 0 187.2220 190.9774" />
<circle cx="199.4008" cy="181.5984" r="1.5000" /> 
<path d="M198.7802 190.9763 A6.5015 6.5015 0.0 1 0 195.9781 193.7781" />
<circle cx="186.6008" cy="194.3984" r="1.5000" /> 
<path d="M197.2711 233.0711 A1.9799 1.9799 0.0 0 0 200.0711 230.2711" />
<circle cx="186.6008" cy="232.3984" r="1.5000" /> 
<circle cx="199.4008" cy="219.5984" r="1.5000" /> 
<path d="M195.9683 220.2136 A6.5015 6.5015 0.0 0 0 187.2220 228.9774" />
<path d="M198.7802 228.9763 A6.5015 6.5015 0.0 1 0 195.9781 231.7781" />
<path d="M178.2711 252.0694 A1.9799 1.9799 0.0 0 0 181.0711 249.2694" />
<circle cx="167.6008" cy="251.3967" r="1.5000" /> 
<circle cx="180.4008" cy="238.5967" r="1.5000" /> 
<path d="M179.7802 247.9747 A6.5015 6.5015 0.0 1 0 176.9781 250.7765" />
<path d="M176.9683 239.2120 A6.5015 6.5015 0.0 0 0 168.2220 247.9757" />
<path d="M217.7802 190.9763 A6.5015 6.5015 0.0 1 0 214.9781 193.7781" />
<path d="M216.2711 195.0711 A1.9799 1.9799 0.0 0 0 219.0711 192.2711" />
<circle cx="205.6008" cy="194.3984" r="1.5000" /> 
<circle cx="218.4008" cy="181.5984" r="1.5000" /> 
<path d="M214.9683 182.2136 A6.5015 6.5015 0.0 0 0 206.2220 190.9774" />
<path d="M157.9781 212.7781
L157.9781 212.7781
" />
<path d="M162.0711 211.2711
L160.7802 209.9802
" />
<path d="M149.2220 209.9774
L149.2220 209.9780
" />
<path d="M159.2711 214.0711
L157.9781 212.7781
" />
<path d="M160.7802 209.9802
L160.7802 209.9763
" />
<path d="M178.2711 233.0694
L176.9781 231.7765
" />
<path d="M176.9781 231.7765
L176.9781 231.7765
" />
<path d="M181.0711 230.2694
L179.7802 228.9786
" />
<path d="M168.2220 228.9757
L168.2220 228.9764
" />
<path d="M179.7802 228.9786
L179.7802 228.9747
" />
<path d="M181.0711 192.2711
L179.7802 190.9802
" />
<path d="M178.2711 195.0711
L176.9781 193.7781
" />
<path d="M168.2220 190.9774
L168.2220 190.9780
" />
<path d="M179.7802 190.9802
L179.7802 190.9763
" />
<path d="M176.9781 193.7781
L176.9781 193.7781
" />
<path d="M198.7802 247.9770
L198.7802 247.9730
" />
<path d="M200.0711 249.2678
L198.7802 247.9770
" />
<path d="M197.2711 252.0678
L195.9781 250.7748
" />
<path d="M195.9781 250.7748
L195.9781 250.7748
" />
<path d="M187.2220 247.9741
L187.2220 247.9748
" />
<path d="M149.2220 228.9774
L149.2220 228.9780
" />
<path d="M162.0711 230.2711
L160.7802 228.9802
" />
<path d="M160.7802 228.9802
L160.7802 228.9763
" />
<path d="M159.2711 233.0711
L157.9781 231.7781
" />
<path d="M157.9781 231.7781
L157.9781 231.7781
" />
<path d="M206.2220 171.9774
L206.2220 171.9780
" />
<path d="M217.7802 171.9802
L217.7802 171.9763
" />
<path d="M216.2711 176.0711
L214.9781 174.7781
" />
<path d="M219.0711 173.2711
L217.7802 171.9802
" />
<path d="M214.9781 174.7781
L214.9781 174.7781
" />
<path d="M159.2711 195.0711
L157.9781 193.7781
" />
<path d="M160.7802 190.9802
L160.7802 190.9763
" />
<path d="M149.2220 190.9774
L149.2220 190.9780
" />
<path d="M162.0711 192.2711
L160.7802 190.9802
" />
<path d="M157.9781 193.7781
L157.9781 193.7781
" />
<path d="M214.9781 231.7781
L214.9781 231.7781
" />
<path d="M206.2220 228.9774
L206.2220 228.9780
" />
<path d="M217.7802 228.9802
L217.7802 228.9763
" />
<path d="M216.2711 233.0711
L214.9781 231.7781
" />
<path d="M219.0711 230.2711
L217.7802 228.9802
" />
<path d="M200.0711 173.2711
L198.7802 171.9802
" />
<path d="M198.7802 171.9802
L198.7802 171.9763
" />
<path d="M195.9781 174.7781
L195.9781 174.7781
" />
<path d="M197.2711 176.0711
L195.9781 174.7781
" />
<path d="M187.2220 171.9774
L187.2220 171.9780
" />
<path d="M160.7802 247.9802
L160.7802 247.9763
" />
<path d="M159.2711 252.0711
L157.9781 250.7781
" />
<path d="M149.2220 247.9774
L149.2220 247.9780
" />
<path d="M157.9781 250.7781
L157.9781 250.7781
" />
<path d="M162.0711 249.2711
L160.7802 247.9802
" />
<path d="M219.0711 249.2711
L217.7802 247.9802
" />
<path d="M206.2220 247.9774
L206.2220 247.9780
" />
<path d="M216.2711 252.0711
L214.9781 250.7781
" />
<path d="M217.7802 247.9802
L217.7802 247.9763
" />
<path d="M214.9781 250.7781
L214.9781 250.7781
" />
<path d="M217.7802 209.9802
L217.7802 209.9763
" />
<path d="M216.2711 214.0711
L214.9781 212.7781
" />
<path d="M219.0711 211.2711
L217.7802 209.9802
" />
<path d="M214.9781 212.7781
L214.9781 212.7781
" />
<path d="M206.2220 209.9774
L206.2220 209.9780
" />
<path d="M168.2220 209.9774
L168.2220 209.9780
" />
<path d="M179.7802 209.9802
L179.7802 209.9763
" />
<path d="M176.9781 212.7781
L176.9781 212.7781
" />
<path d="M181.0711 211.2711
L179.7802 209.9802
" />
<path d="M178.2711 214.0711
L176.9781 212.7781
" />
<path d="M187.2220 209.9774
L187.2220 209.9780
" />
<path d="M197.2711 214.0711
L195.9781 212.7781
" />
<path d="M198.7802 209.9802
L198.7802 209.9763
" />
<path d="M200.0711 211.2711
L198.7802 209.9802
" />
<path d="M195.9781 212.7781
L195.9781 212.7781
" />
<path d="M181.0711 173.2711
L179.7802 171.9802
" />
<path d="M179.7802 171.9802
L179.7802 171.9763
" />
<path d="M168.2220 171.9774
L168.2220 171.9780
" />
<path d="M176.9781 174.7781
L176.9781 174.7781
" />
<path d="M178.2711 176.0711
L176.9781 174.7781
" />
<path d="M149.2400 171.9594
L149.2400 171.9600
" />
<path d="M157.9961 174.7601
L157.9961 174.7601
" />
<path d="M162.0891 173.2530
L160.7982 171.9622
" />
<path d="M160.7982 171.9622
L160.7982 171.9583
" />
<path d="M159.2891 176.0530
L157.9961 174.7601
" />
<path d="M195.9781 193.7781
L195.9781 193.7781
" />
<path d="M200.0711 192.2711
L198.7802 190.9802
" />
<path d="M187.2220 190.9774
L187.2220 190.9780
" />
<path d="M197.2711 195.0711
L195.9781 193.7781
" />
<path d="M198.7802 190.9802
L198.7802 190.9763
" />
<path d="M195.9781 231.7781
L195.9781 231.7781
" />
<path d="M187.2220 228.9774
L187.2220 228.9780
" />
<path d="M200.0711 230.2711
L198.7802 228.9802
" />
<path d="M198.7802 228.9802
L198.7802 228.9763
" />
<path d="M197.2711 233.0711
L195.9781 231.7781
" />
<path d="M179.7802 247.9786
L179.7802 247.9747
" />
<path d="M176.9781 250.7765
L176.9781 250.7765
" />
<path d="M178.2711 252.0694
L176.9781 250.7765
" />
<path d="M168.2220 247.9757
L168.2220 247.9764
" />
<path d="M181.0711 249.2694
L179.7802 247.9786
" />
<path d="M206.2220 190.9774
L206.2220 190.9780
" />
<path d="M217.7802 190.9802
L217.7802 190.9763
" />
<path d="M214.9781 193.7781
L214.9781 193.7781
" />
<path d="M219.0711 192.2711
L217.7802 190.9802
" />
<path d="M216.2711 195.0711
L214.9781 193.7781
" />
</g> 
</svg>
