<?xml version="1.0" standalone="no"?>
 <!DOCTYPE svg PUBLIC "-//W3C//DTD SVG 1.1//EN" 
 "http://www.w3.org/Graphics/SVG/1.1/DTD/svg11.dtd"> 
<svg
  xmlns:svg="http://www.w3.org/2000/svg"
  xmlns="http://www.w3.org/2000/svg"
  xmlns:xlink="http://www.w3.org/1999/xlink"
  version="1.1"
  width="419.9890mm" height="297.0022mm" viewBox="0.0000 0.0000 419.9890 297.0022">
<title>SVG Image created as PREH-Commander-F_Cu.svg date 2025/03/10 15:57:37 </title>
  <desc>Image generated by PCBNEW </desc>
<g style="fill:#000000; fill-opacity:1.0000;stroke:#000000; stroke-opacity:1.0000;
stroke-linecap:round; stroke-linejoin:round;"
 transform="translate(0 0) scale(1 1)">
</g>
<g style="fill:none; 
stroke:#000000; stroke-width:0.2000; stroke-opacity:1; 
stroke-linecap:round; stroke-linejoin:round;">
<path d="M162.2977 62.9984 A1.9799 1.9799 0.0 0 0 159.4977 60.1984" />
<path d="M100.5477 81.9984 A1.9799 1.9799 0.0 0 0 97.7477 79.1984" />
<path d="M199.0390 54.7856 A6.5015 6.5015 0.0 0 0 204.9858 54.7713" />
<path d="M65.9477 110.9984 A1.9799 1.9799 0.0 0 0 68.7477 113.7984" />
<path d="M117.5207 89.9885 A6.5015 6.5015 0.0 0 0 117.5237 84.0108" />
<path d="M121.4977 60.1984
L119.4660 62.2301
" />
<path d="M157.5477 81.9951
L155.5237 84.0191
" />
<path d="M203.6977 72.9984 A1.9799 1.9799 0.0 0 0 206.4977 75.7984" />
<path d="M167.9477 129.9984 A1.9799 1.9799 0.0 0 0 170.7477 132.7984" />
<path d="M92.2977 56.0984 A1.9799 1.9799 0.0 0 0 95.0977 53.2984" />
<path d="M110.0477 119.9984
L108.0237 122.0223
" />
<path d="M100.4660 62.2120 A6.5015 6.5015 0.0 0 0 91.7197 70.9758" />
<path d="M200.2977 62.9984 A1.9799 1.9799 0.0 0 0 197.4977 60.1984" />
<path d="M171.7977 43.9984 A1.9799 1.9799 0.0 0 0 168.9977 41.1984" />
<path d="M187.9977 41.1984
L185.9660 43.2301
" />
<path d="M144.5477 132.0984 A1.9799 1.9799 0.0 0 0 147.3477 129.2984" />
<path d="M175.2890 111.7823 A6.5015 6.5015 0.0 0 0 181.2358 111.7681" />
<path d="M110.0477 119.9984 A1.9799 1.9799 0.0 0 0 107.2477 117.1984" />
<path d="M139.7977 75.0984 A1.9799 1.9799 0.0 0 0 142.5977 72.2984" />
<path d="M206.2977 56.0984 A1.9799 1.9799 0.0 0 0 209.0977 53.2984" />
<path d="M89.7890 111.7856 A6.5015 6.5015 0.0 0 0 95.7358 111.7713" />
<path d="M119.4660 100.2120 A6.5015 6.5015 0.0 0 0 110.7197 108.9758" />
<path d="M142.0390 54.7856 A6.5015 6.5015 0.0 0 0 147.9858 54.7713" />
<path d="M247.7977 43.9984 A1.9799 1.9799 0.0 0 0 244.9977 41.1984" />
<path d="M132.4477 129.9984 A1.9799 1.9799 0.0 0 0 135.2477 132.7984" />
<path d="M181.2977 62.9984 A1.9799 1.9799 0.0 0 0 178.4977 60.1984" />
<path d="M174.5207 89.9885 A6.5015 6.5015 0.0 0 0 174.5237 84.0108" />
<path d="M170.5390 73.7856 A6.5015 6.5015 0.0 0 0 176.4858 73.7713" />
<path d="M143.2977 62.9984
L141.2737 65.0223
" />
<path d="M143.2160 119.2120 A6.5015 6.5015 0.0 0 0 134.4697 127.9758" />
<path d="M61.1977 53.9984 A1.9799 1.9799 0.0 0 0 63.9977 56.7984" />
<path d="M97.0477 113.0984 A1.9799 1.9799 0.0 0 0 99.8477 110.2984" />
<path d="M202.2477 98.1984
L200.2160 100.2301
" />
<path d="M141.2707 70.9885 A6.5015 6.5015 0.0 0 0 141.2737 65.0108" />
<path d="M104.0390 54.7856 A6.5015 6.5015 0.0 0 0 109.9858 54.7713" />
<path d="M50.5000 124.0000 A1.5000 1.5000 0.0 0 0 50.5000 127.0000" />
<path d="M213.1977 53.9984 A1.9799 1.9799 0.0 0 0 215.9977 56.7984" />
<path d="M136.5207 89.9885 A6.5015 6.5015 0.0 0 0 136.5237 84.0108" />
<path d="M87.5492 132.1016 A1.9799 1.9799 0.0 0 0 90.3492 129.3016" />
<path d="M146.0207 108.9885 A6.5015 6.5015 0.0 0 0 146.0237 103.0108" />
<path d="M100.5477 81.9984
L98.5237 84.0223
" />
<path d="M133.7977 43.9984 A1.9799 1.9799 0.0 0 0 130.9977 41.1984" />
<path d="M247.7977 43.9984
L245.7737 46.0223
" />
<path d="M203.0207 108.9885 A6.5015 6.5015 0.0 0 0 203.0237 103.0108" />
<path d="M137.2890 111.7856 A6.5015 6.5015 0.0 0 0 143.2358 111.7713" />
<path d="M99.2890 130.7856 A6.5015 6.5015 0.0 0 0 105.2358 130.7713" />
<path d="M94.4477 129.9984 A1.9799 1.9799 0.0 0 0 97.2477 132.7984" />
<path d="M161.0390 54.7856 A6.5015 6.5015 0.0 0 0 166.9858 54.7713" />
<path d="M189.5390 73.7856 A6.5015 6.5015 0.0 0 0 195.4858 73.7713" />
<path d="M109.9660 43.2120 A6.5015 6.5015 0.0 0 0 101.2197 51.9758" />
<path d="M84.9477 110.9984 A1.9799 1.9799 0.0 0 0 87.7477 113.7984" />
<path d="M144.5477 113.0984 A1.9799 1.9799 0.0 0 0 147.3477 110.2984" />
<path d="M113.4477 129.9984 A1.9799 1.9799 0.0 0 0 116.2477 132.7984" />
<path d="M182.5477 113.0951 A1.9799 1.9799 0.0 0 0 185.3477 110.2951" />
<path d="M158.7977 75.0984 A1.9799 1.9799 0.0 0 0 161.5977 72.2984" />
<path d="M186.0477 100.9951
L184.0237 103.0191
" />
<path d="M82.7977 75.0984 A1.9799 1.9799 0.0 0 0 85.5977 72.2984" />
<path d="M116.7477 79.1984
L114.7160 81.2301
" />
<path d="M228.7977 43.9984
L226.7737 46.0223
" />
<path d="M89.7890 92.7856 A6.5015 6.5015 0.0 0 0 95.7358 92.7713" />
<path d="M156.1977 53.9984 A1.9799 1.9799 0.0 0 0 158.9977 56.7984" />
<path d="M166.9660 43.2120 A6.5015 6.5015 0.0 0 0 158.2197 51.9758" />
<path d="M76.7160 81.2120 A6.5015 6.5015 0.0 0 0 67.9697 89.9758" />
<path d="M86.2977 62.9984
L84.2737 65.0223
" />
<path d="M154.0477 94.0951 A1.9799 1.9799 0.0 0 0 156.8477 91.2951" />
<path d="M114.7977 43.9984 A1.9799 1.9799 0.0 0 0 111.9977 41.1984" />
<path d="M138.4660 62.2120 A6.5015 6.5015 0.0 0 0 129.7197 70.9758" />
<path d="M222.7890 92.7856 A6.5015 6.5015 0.0 0 0 228.7358 92.7713" />
<path d="M206.9977 41.1984
L204.9660 43.2301
" />
<path d="M211.7477 79.1984
L209.7160 81.2301
" />
<path d="M89.0222 127.9918 A6.5015 6.5015 0.0 0 0 89.0252 122.0140" />
<path d="M189.4477 110.9984 A1.9799 1.9799 0.0 0 0 192.2477 113.7984" />
<path d="M207.7707 51.9885 A6.5015 6.5015 0.0 0 0 207.7737 46.0108" />
<path d="M81.4660 62.2120 A6.5015 6.5015 0.0 0 0 72.7197 70.9758" />
<path d="M127.6977 72.9984 A1.9799 1.9799 0.0 0 0 130.4977 75.7984" />
<path d="M190.7977 43.9984
L188.7737 46.0223
" />
<path d="M91.0492 120.0016
L89.0252 122.0256
" />
<path d="M171.7160 81.2120 A6.5015 6.5015 0.0 0 0 162.9697 89.9758" />
<path d="M222.6977 72.9984 A1.9799 1.9799 0.0 0 0 225.4977 75.7984" />
<path d="M138.5477 81.9984
L136.5237 84.0223
" />
<path d="M75.4492 130.0016 A1.9799 1.9799 0.0 0 0 78.2492 132.8016" />
<path d="M126.2477 117.1984
L124.2160 119.2301
" />
<path d="M193.5207 89.9885 A6.5015 6.5015 0.0 0 0 193.5237 84.0108" />
<path d="M108.0207 127.9885 A6.5015 6.5015 0.0 0 0 108.0237 122.0108" />
<path d="M111.2977 56.0984 A1.9799 1.9799 0.0 0 0 114.0977 53.2984" />
<path d="M176.5477 81.9984
L174.5237 84.0223
" />
<path d="M124.2977 100.9984
L122.2737 103.0223
" />
<path d="M122.2707 70.9885 A6.5015 6.5015 0.0 0 0 122.2737 65.0108" />
<path d="M157.5477 81.9951 A1.9799 1.9799 0.0 0 0 154.7477 79.1951" />
<path d="M111.9977 41.1984
L109.9660 43.2301
" />
<path d="M216.4977 60.1984
L214.4660 62.2301
" />
<path d="M184.6977 72.9984 A1.9799 1.9799 0.0 0 0 187.4977 75.7984" />
<path d="M178.4977 60.1984
L176.4660 62.2301
" />
<path d="M118.2890 130.7856 A6.5015 6.5015 0.0 0 0 124.2358 130.7713" />
<path d="M192.7477 79.1984
L190.7160 81.2301
" />
<path d="M140.4977 60.1984
L138.4660 62.2301
" />
<path d="M190.7977 43.9984 A1.9799 1.9799 0.0 0 0 187.9977 41.1984" />
<path d="M165.0207 108.9885 A6.5015 6.5015 0.0 0 0 165.0237 103.0108" />
<path d="M92.9977 41.1984
L90.9660 43.2301
" />
<path d="M97.7477 79.1984
L95.7160 81.2301
" />
<path d="M146.0207 127.9885 A6.5015 6.5015 0.0 0 0 146.0237 122.0108" />
<path d="M176.4660 62.2120 A6.5015 6.5015 0.0 0 0 167.7197 70.9758" />
<path d="M108.7890 92.7856 A6.5015 6.5015 0.0 0 0 114.7358 92.7713" />
<path d="M233.5477 81.9984 A1.9799 1.9799 0.0 0 0 230.7477 79.1984" />
<path d="M185.9660 43.2120 A6.5015 6.5015 0.0 0 0 177.2197 51.9758" />
<path d="M167.0477 100.9984
L165.0237 103.0223
" />
<path d="M208.5390 73.7856 A6.5015 6.5015 0.0 0 0 214.4858 73.7713" />
<path d="M213.2890 111.7856 A6.5015 6.5015 0.0 0 0 219.2358 111.7713" />
<path d="M168.2977 56.0984 A1.9799 1.9799 0.0 0 0 171.0977 53.2984" />
<path d="M73.9977 41.1984
L71.9660 43.2301
" />
<path d="M160.2707 70.9885 A6.5015 6.5015 0.0 0 0 160.2737 65.0108" />
<path d="M180.0390 54.7856 A6.5015 6.5015 0.0 0 0 185.9858 54.7713" />
<path d="M50.5000 67.0000 A1.5000 1.5000 0.0 0 0 50.5000 70.0000" />
<path d="M224.0477 100.9984 A1.9799 1.9799 0.0 0 0 221.2477 98.1984" />
<path d="M99.1977 53.9984 A1.9799 1.9799 0.0 0 0 101.9977 56.7984" />
<path d="M223.9660 43.2120 A6.5015 6.5015 0.0 0 0 215.2197 51.9758" />
<path d="M179.2707 70.9885 A6.5015 6.5015 0.0 0 0 179.2737 65.0108" />
<path d="M212.5207 89.9885 A6.5015 6.5015 0.0 0 0 212.5237 84.0108" />
<path d="M181.2160 100.2087 A6.5015 6.5015 0.0 0 0 172.4697 108.9725" />
<path d="M119.5477 81.9984
L117.5237 84.0223
" />
<path d="M101.7977 75.0984 A1.9799 1.9799 0.0 0 0 104.5977 72.2984" />
<path d="M114.7160 81.2120 A6.5015 6.5015 0.0 0 0 105.9697 89.9758" />
<path d="M114.7977 43.9984
L112.7737 46.0223
" />
<path d="M89.6977 72.9984 A1.9799 1.9799 0.0 0 0 92.4977 75.7984" />
<path d="M129.0477 119.9984
L127.0237 122.0223
" />
<path d="M228.7977 43.9984 A1.9799 1.9799 0.0 0 0 225.9977 41.1984" />
<path d="M70.6977 72.9984 A1.9799 1.9799 0.0 0 0 73.4977 75.7984" />
<path d="M195.4660 62.2120 A6.5015 6.5015 0.0 0 0 186.7197 70.9758" />
<path d="M49.0000 37.0000 A2.5000 2.5000 0.0 0 0 46.5000 39.5000" />
<path d="M195.5477 81.9984 A1.9799 1.9799 0.0 0 0 192.7477 79.1984" />
<path d="M237.0390 54.7856 A6.5015 6.5015 0.0 0 0 242.9858 54.7713" />
<path d="M145.2477 117.1984
L143.2160 119.2301
" />
<path d="M86.2174 119.2152 A6.5015 6.5015 0.0 0 0 77.4712 127.9790" />
<path d="M205.0477 100.9984
L203.0237 103.0223
" />
<path d="M81.5477 100.9984 A1.9799 1.9799 0.0 0 0 78.7477 98.1984" />
<path d="M86.2977 62.9984 A1.9799 1.9799 0.0 0 0 83.4977 60.1984" />
<path d="M149.2977 56.0984 A1.9799 1.9799 0.0 0 0 152.0977 53.2984" />
<path d="M100.5477 100.9984
L98.5237 103.0223
" />
<path d="M238.2977 62.9984 A1.9799 1.9799 0.0 0 0 235.4977 60.1984" />
<path d="M159.4977 60.1984
L157.4660 62.2301
" />
<path d="M244.2977 56.0984 A1.9799 1.9799 0.0 0 0 247.0977 53.2984" />
<path d="M170.4477 110.9951 A1.9799 1.9799 0.0 0 0 173.2477 113.7951" />
<path d="M91.0492 120.0016 A1.9799 1.9799 0.0 0 0 88.2492 117.2016" />
<path d="M79.5207 108.9885 A6.5015 6.5015 0.0 0 0 79.5237 103.0108" />
<path d="M209.7160 81.2120 A6.5015 6.5015 0.0 0 0 200.9697 89.9758" />
<path d="M214.5477 81.9984 A1.9799 1.9799 0.0 0 0 211.7477 79.1984" />
<path d="M120.7977 75.0984 A1.9799 1.9799 0.0 0 0 123.5977 72.2984" />
<path d="M105.2977 62.9984
L103.2737 65.0223
" />
<path d="M70.7890 92.7856 A6.5015 6.5015 0.0 0 0 76.7358 92.7713" />
<path d="M176.5477 81.9984 A1.9799 1.9799 0.0 0 0 173.7477 79.1984" />
<path d="M230.0477 94.0984 A1.9799 1.9799 0.0 0 0 232.8477 91.2984" />
<path d="M80.2905 130.7888 A6.5015 6.5015 0.0 0 0 86.2373 130.7745" />
<path d="M228.7160 81.2120 A6.5015 6.5015 0.0 0 0 219.9697 89.9758" />
<path d="M76.7160 100.2120 A6.5015 6.5015 0.0 0 0 67.9697 108.9758" />
<path d="M128.9660 43.2120 A6.5015 6.5015 0.0 0 0 120.2197 51.9758" />
<path d="M156.2890 111.7856 A6.5015 6.5015 0.0 0 0 162.2358 111.7713" />
<path d="M233.5477 81.9984
L231.5237 84.0223
" />
<path d="M177.7977 75.0984 A1.9799 1.9799 0.0 0 0 180.5977 72.2984" />
<path d="M81.5477 81.9984 A1.9799 1.9799 0.0 0 0 78.7477 79.1984" />
<path d="M95.7977 43.9984 A1.9799 1.9799 0.0 0 0 92.9977 41.1984" />
<path d="M52.5000 127.0000 A1.5000 1.5000 0.0 0 0 52.5000 124.0000" />
<path d="M235.4977 60.1984
L233.4660 62.2301
" />
<path d="M105.2160 119.2120 A6.5015 6.5015 0.0 0 0 96.4697 127.9758" />
<path d="M192.0477 94.0984 A1.9799 1.9799 0.0 0 0 194.8477 91.2984" />
<path d="M214.4660 62.2120 A6.5015 6.5015 0.0 0 0 205.7197 70.9758" />
<path d="M78.0477 94.0984 A1.9799 1.9799 0.0 0 0 80.8477 91.2984" />
<path d="M74.7707 51.9885 A6.5015 6.5015 0.0 0 0 74.7737 46.0108" />
<path d="M127.0207 127.9885 A6.5015 6.5015 0.0 0 0 127.0237 122.0108" />
<path d="M209.7977 43.9984
L207.7737 46.0223
" />
<path d="M148.0477 100.9984 A1.9799 1.9799 0.0 0 0 145.2477 98.1984" />
<path d="M149.9977 41.1984
L147.9660 43.2301
" />
<path d="M105.2977 62.9984 A1.9799 1.9799 0.0 0 0 102.4977 60.1984" />
<path d="M225.2977 56.0984 A1.9799 1.9799 0.0 0 0 228.0977 53.2984" />
<path d="M217.2707 70.9885 A6.5015 6.5015 0.0 0 0 217.2737 65.0108" />
<path d="M76.7977 43.9984 A1.9799 1.9799 0.0 0 0 73.9977 41.1984" />
<path d="M133.7977 43.9984
L131.7737 46.0223
" />
<path d="M200.2977 62.9984
L198.2737 65.0223
" />
<path d="M124.2160 119.2120 A6.5015 6.5015 0.0 0 0 115.4697 127.9758" />
<path d="M78.7477 79.1984
L76.7160 81.2301
" />
<path d="M168.9977 41.1984
L166.9660 43.2301
" />
<path d="M94.5390 73.7856 A6.5015 6.5015 0.0 0 0 100.4858 73.7713" />
<path d="M137.1977 53.9984 A1.9799 1.9799 0.0 0 0 139.9977 56.7984" />
<path d="M198.2707 70.9885 A6.5015 6.5015 0.0 0 0 198.2737 65.0108" />
<path d="M93.7707 51.9885 A6.5015 6.5015 0.0 0 0 93.7737 46.0108" />
<path d="M197.4977 60.1984
L195.4660 62.2301
" />
<path d="M78.0477 113.0984 A1.9799 1.9799 0.0 0 0 80.8477 110.2984" />
<path d="M132.4477 110.9984 A1.9799 1.9799 0.0 0 0 135.2477 113.7984" />
<path d="M217.9477 91.9984 A1.9799 1.9799 0.0 0 0 220.7477 94.7984" />
<path d="M141.9477 91.9951 A1.9799 1.9799 0.0 0 0 144.7477 94.7951" />
<path d="M152.7160 81.2087 A6.5015 6.5015 0.0 0 0 143.9697 89.9725" />
<path d="M97.7477 98.1984
L95.7160 100.2301
" />
<path d="M108.6977 72.9984 A1.9799 1.9799 0.0 0 0 111.4977 75.7984" />
<path d="M127.7890 92.7856 A6.5015 6.5015 0.0 0 0 133.7358 92.7713" />
<path d="M222.0207 108.9885 A6.5015 6.5015 0.0 0 0 222.0237 103.0108" />
<path d="M219.2977 62.9984 A1.9799 1.9799 0.0 0 0 216.4977 60.1984" />
<path d="M120.7977 113.0984 A1.9799 1.9799 0.0 0 0 123.5977 110.2984" />
<path d="M70.7890 111.7856 A6.5015 6.5015 0.0 0 0 76.7358 111.7713" />
<path d="M102.4977 60.1984
L100.4660 62.2301
" />
<path d="M98.5207 89.9885 A6.5015 6.5015 0.0 0 0 98.5237 84.0108" />
<path d="M203.7890 92.7856 A6.5015 6.5015 0.0 0 0 209.7358 92.7713" />
<path d="M129.0477 119.9984 A1.9799 1.9799 0.0 0 0 126.2477 117.1984" />
<path d="M73.2977 56.0984 A1.9799 1.9799 0.0 0 0 76.0977 53.2984" />
<path d="M195.5477 81.9984
L193.5237 84.0223
" />
<path d="M124.2977 62.9984 A1.9799 1.9799 0.0 0 0 121.4977 60.1984" />
<path d="M231.5207 89.9885 A6.5015 6.5015 0.0 0 0 231.5237 84.0108" />
<path d="M173.0477 94.0984 A1.9799 1.9799 0.0 0 0 175.8477 91.2984" />
<path d="M208.4477 110.9984 A1.9799 1.9799 0.0 0 0 211.2477 113.7984" />
<path d="M122.2707 108.9885 A6.5015 6.5015 0.0 0 0 122.2737 103.0108" />
<path d="M71.9660 43.2120 A6.5015 6.5015 0.0 0 0 63.2197 51.9758" />
<path d="M148.0477 119.9984
L146.0237 122.0223
" />
<path d="M227.5390 73.7856 A6.5015 6.5015 0.0 0 0 233.4858 73.7713" />
<path d="M183.5477 119.9984 A1.9799 1.9799 0.0 0 0 180.7477 117.1984" />
<path d="M88.2492 117.2016
L86.2174 119.2333
" />
<path d="M95.7160 100.2120 A6.5015 6.5015 0.0 0 0 86.9697 108.9758" />
<path d="M121.4977 98.1984
L119.4660 100.2301
" />
<path d="M221.2477 98.1984
L219.2160 100.2301
" />
<path d="M215.7977 75.0984 A1.9799 1.9799 0.0 0 0 218.5977 72.2984" />
<path d="M131.7707 51.9885 A6.5015 6.5015 0.0 0 0 131.7737 46.0108" />
<path d="M118.1977 53.9984 A1.9799 1.9799 0.0 0 0 120.9977 56.7984" />
<path d="M130.9977 41.1984
L128.9660 43.2301
" />
<path d="M83.4977 60.1984
L81.4660 62.2301
" />
<path d="M211.0477 94.0984 A1.9799 1.9799 0.0 0 0 213.8477 91.2984" />
<path d="M137.2890 130.7856 A6.5015 6.5015 0.0 0 0 143.2358 130.7713" />
<path d="M122.9477 91.9984 A1.9799 1.9799 0.0 0 0 125.7477 94.7984" />
<path d="M133.7160 81.2120 A6.5015 6.5015 0.0 0 0 124.9697 89.9758" />
<path d="M84.2707 70.9885 A6.5015 6.5015 0.0 0 0 84.2737 65.0108" />
<path d="M242.9660 43.2120 A6.5015 6.5015 0.0 0 0 234.2197 51.9758" />
<path d="M162.2977 62.9984
L160.2737 65.0223
" />
<path d="M113.5390 111.7856 A6.5015 6.5015 0.0 0 0 119.4858 111.7713" />
<path d="M98.5207 108.9885 A6.5015 6.5015 0.0 0 0 98.5237 103.0108" />
<path d="M154.7477 79.1951
L152.7160 81.2269
" />
<path d="M81.5477 81.9984
L79.5237 84.0223
" />
<path d="M164.2477 98.1984
L162.2160 100.2301
" />
<path d="M116.0477 94.0984 A1.9799 1.9799 0.0 0 0 118.8477 91.2984" />
<path d="M196.7977 75.0984 A1.9799 1.9799 0.0 0 0 199.5977 72.2984" />
<path d="M119.4660 62.2120 A6.5015 6.5015 0.0 0 0 110.7197 70.9758" />
<path d="M201.5477 113.0984 A1.9799 1.9799 0.0 0 0 204.3477 110.2984" />
<path d="M157.4660 62.2120 A6.5015 6.5015 0.0 0 0 148.7197 70.9758" />
<path d="M84.9477 91.9984 A1.9799 1.9799 0.0 0 0 87.7477 94.7984" />
<path d="M214.5477 81.9984
L212.5237 84.0223
" />
<path d="M152.7977 43.9984 A1.9799 1.9799 0.0 0 0 149.9977 41.1984" />
<path d="M143.2977 62.9984 A1.9799 1.9799 0.0 0 0 140.4977 60.1984" />
<path d="M233.4660 62.2120 A6.5015 6.5015 0.0 0 0 224.7197 70.9758" />
<path d="M65.9477 91.9984 A1.9799 1.9799 0.0 0 0 68.7477 94.7984" />
<path d="M148.0477 100.9984
L146.0237 103.0223
" />
<path d="M78.7477 98.1984
L76.7160 100.2301
" />
<path d="M232.1977 53.9984 A1.9799 1.9799 0.0 0 0 234.9977 56.7984" />
<path d="M75.5390 73.7856 A6.5015 6.5015 0.0 0 0 81.4858 73.7713" />
<path d="M226.7707 51.9885 A6.5015 6.5015 0.0 0 0 226.7737 46.0108" />
<path d="M205.0477 100.9984 A1.9799 1.9799 0.0 0 0 202.2477 98.1984" />
<path d="M66.0390 54.7856 A6.5015 6.5015 0.0 0 0 71.9858 54.7713" />
<path d="M188.7707 51.9885 A6.5015 6.5015 0.0 0 0 188.7737 46.0108" />
<path d="M113.5390 73.7856 A6.5015 6.5015 0.0 0 0 119.4858 73.7713" />
<path d="M97.0477 94.0984 A1.9799 1.9799 0.0 0 0 99.8477 91.2984" />
<path d="M190.7160 81.2120 A6.5015 6.5015 0.0 0 0 181.9697 89.9758" />
<path d="M184.0207 108.9853 A6.5015 6.5015 0.0 0 0 184.0237 103.0075" />
<path d="M179.9477 91.9984 A1.9799 1.9799 0.0 0 0 182.7477 94.7984" />
<path d="M79.5207 89.9885 A6.5015 6.5015 0.0 0 0 79.5237 84.0108" />
<path d="M224.0477 100.9984
L222.0237 103.0223
" />
<path d="M107.2477 117.1984
L105.2160 119.2301
" />
<path d="M106.5477 132.0984 A1.9799 1.9799 0.0 0 0 109.3477 129.2984" />
<path d="M148.0477 119.9984 A1.9799 1.9799 0.0 0 0 145.2477 117.1984" />
<path d="M143.2160 100.2120 A6.5015 6.5015 0.0 0 0 134.4697 108.9758" />
<path d="M220.5477 113.0984 A1.9799 1.9799 0.0 0 0 223.3477 110.2984" />
<path d="M103.9477 91.9984 A1.9799 1.9799 0.0 0 0 106.7477 94.7984" />
<path d="M81.5477 100.9984
L79.5237 103.0223
" />
<path d="M204.9660 43.2120 A6.5015 6.5015 0.0 0 0 196.2197 51.9758" />
<path d="M219.2160 100.2120 A6.5015 6.5015 0.0 0 0 210.4697 108.9758" />
<path d="M46.5000 134.5000 A2.5000 2.5000 0.0 0 0 49.0000 137.0000" />
<path d="M138.5477 81.9984 A1.9799 1.9799 0.0 0 0 135.7477 79.1984" />
<path d="M108.6977 110.9984 A1.9799 1.9799 0.0 0 0 111.4977 113.7984" />
<path d="M181.2977 62.9984
L179.2737 65.0223
" />
<path d="M100.5477 100.9984 A1.9799 1.9799 0.0 0 0 97.7477 98.1984" />
<path d="M238.2977 62.9984
L236.2737 65.0223
" />
<path d="M152.7977 43.9984
L150.7737 46.0223
" />
<path d="M85.0390 54.7856 A6.5015 6.5015 0.0 0 0 90.9858 54.7713" />
<path d="M95.7977 43.9984
L93.7737 46.0223
" />
<path d="M80.1977 53.9984 A1.9799 1.9799 0.0 0 0 82.9977 56.7984" />
<path d="M146.7890 92.7823 A6.5015 6.5015 0.0 0 0 152.7358 92.7681" />
<path d="M225.9977 41.1984
L223.9660 43.2301
" />
<path d="M162.2160 100.2120 A6.5015 6.5015 0.0 0 0 153.4697 108.9758" />
<path d="M183.2477 98.1951
L181.2160 100.2269
" />
<path d="M76.7977 43.9984
L74.7737 46.0223
" />
<path d="M151.4477 110.9984 A1.9799 1.9799 0.0 0 0 154.2477 113.7984" />
<path d="M200.2160 100.2120 A6.5015 6.5015 0.0 0 0 191.4697 108.9758" />
<path d="M236.2707 70.9885 A6.5015 6.5015 0.0 0 0 236.2737 65.0108" />
<path d="M132.5390 73.7856 A6.5015 6.5015 0.0 0 0 138.4858 73.7713" />
<path d="M173.7477 79.1984
L171.7160 81.2301
" />
<path d="M198.9477 91.9984 A1.9799 1.9799 0.0 0 0 201.7477 94.7984" />
<path d="M145.2477 98.1984
L143.2160 100.2301
" />
<path d="M52.5000 70.0000 A1.5000 1.5000 0.0 0 0 52.5000 67.0000" />
<path d="M119.5477 81.9984 A1.9799 1.9799 0.0 0 0 116.7477 79.1984" />
<path d="M103.2707 70.9885 A6.5015 6.5015 0.0 0 0 103.2737 65.0108" />
<path d="M244.9977 41.1984
L242.9660 43.2301
" />
<path d="M230.7477 79.1984
L228.7160 81.2301
" />
<path d="M209.7977 43.9984 A1.9799 1.9799 0.0 0 0 206.9977 41.1984" />
<path d="M135.0477 94.0984 A1.9799 1.9799 0.0 0 0 137.8477 91.2984" />
<path d="M245.7707 51.9885 A6.5015 6.5015 0.0 0 0 245.7737 46.0108" />
<path d="M187.2977 56.0984 A1.9799 1.9799 0.0 0 0 190.0977 53.2984" />
<path d="M167.0477 100.9984 A1.9799 1.9799 0.0 0 0 164.2477 98.1984" />
<path d="M175.1977 53.9984 A1.9799 1.9799 0.0 0 0 177.9977 56.7984" />
<path d="M194.2890 111.7856 A6.5015 6.5015 0.0 0 0 200.2358 111.7713" />
<path d="M184.7890 92.7856 A6.5015 6.5015 0.0 0 0 190.7358 92.7713" />
<path d="M130.2977 56.0984 A1.9799 1.9799 0.0 0 0 133.0977 53.2984" />
<path d="M160.9477 91.9984 A1.9799 1.9799 0.0 0 0 163.7477 94.7984" />
<path d="M135.7477 79.1984
L133.7160 81.2301
" />
<path d="M186.0477 100.9951 A1.9799 1.9799 0.0 0 0 183.2477 98.1951" />
<path d="M112.7707 51.9885 A6.5015 6.5015 0.0 0 0 112.7737 46.0108" />
<path d="M169.7707 51.9885 A6.5015 6.5015 0.0 0 0 169.7737 46.0108" />
<path d="M124.2977 100.9984 A1.9799 1.9799 0.0 0 0 121.4977 98.1984" />
<path d="M171.7977 43.9984
L169.7737 46.0223
" />
<path d="M165.6977 72.9984 A1.9799 1.9799 0.0 0 0 168.4977 75.7984" />
<path d="M125.5477 132.0984 A1.9799 1.9799 0.0 0 0 128.3477 129.2984" />
<path d="M90.9660 43.2120 A6.5015 6.5015 0.0 0 0 82.2197 51.9758" />
<path d="M123.0390 54.7856 A6.5015 6.5015 0.0 0 0 128.9858 54.7713" />
<path d="M95.7160 81.2120 A6.5015 6.5015 0.0 0 0 86.9697 89.9758" />
<path d="M163.5477 113.0984 A1.9799 1.9799 0.0 0 0 166.3477 110.2984" />
<path d="M147.9660 43.2120 A6.5015 6.5015 0.0 0 0 139.2197 51.9758" />
<path d="M194.1977 53.9984 A1.9799 1.9799 0.0 0 0 196.9977 56.7984" />
<path d="M218.0390 54.7856 A6.5015 6.5015 0.0 0 0 223.9858 54.7713" />
<path d="M155.5207 89.9853 A6.5015 6.5015 0.0 0 0 155.5237 84.0075" />
<path d="M234.7977 75.0984 A1.9799 1.9799 0.0 0 0 237.5977 72.2984" />
<path d="M146.6977 72.9984 A1.9799 1.9799 0.0 0 0 149.4977 75.7984" />
<path d="M124.2977 62.9984
L122.2737 65.0223
" />
<path d="M151.5390 73.7856 A6.5015 6.5015 0.0 0 0 157.4858 73.7713" />
<path d="M165.7890 92.7856 A6.5015 6.5015 0.0 0 0 171.7358 92.7713" />
<path d="M150.7707 51.9885 A6.5015 6.5015 0.0 0 0 150.7737 46.0108" />
<path d="M219.2977 62.9984
L217.2737 65.0223
" />
<path d="M225.5000 114.0000
L225.5000 103.5000
" />
<path d="M212.0000 127.5000
L225.5000 114.0000
" />
<path d="M249.0000 57.0000
L249.0000 45.5000
" />
<path d="M212.0000 137.0000
L212.0000 127.5000
" />
<path d="M225.5000 103.5000
L235.0000 94.0000
" />
<path d="M235.0000 94.0000
L235.0000 84.5000
" />
<path d="M235.0000 84.5000
L239.5000 80.0000
" />
<path d="M253.0000 41.5000
L253.0000 37.0000
" />
<path d="M239.5000 66.5000
L249.0000 57.0000
" />
<path d="M249.0000 45.5000
L253.0000 41.5000
" />
<path d="M239.5000 80.0000
L239.5000 66.5000
" />
<path d="M212.0000 137.0000
L49.0000 137.0000
" />
<path d="M50.5000 127.0000
L52.5000 127.0000
" />
<path d="M50.5000 124.0000
L52.5000 124.0000
" />
<path d="M50.5000 70.0000
L52.5000 70.0000
" />
<path d="M50.5000 67.0000
L52.5000 67.0000
" />
<path d="M206.4977 75.7984
L208.5105 73.7856
" />
<path d="M144.7477 94.7951
L146.7605 92.7823
" />
<path d="M219.2358 111.7865
L219.2358 111.7713
" />
<path d="M89.0393 127.9918
L89.0222 127.9918
" />
<path d="M156.2688 111.7773
L156.2688 111.7763
" />
<path d="M95.7341 100.2120
L95.7160 100.2120
" />
<path d="M228.0977 53.2984
L226.7878 51.9885
" />
<path d="M108.6977 110.9984
L108.6977 110.9978
" />
<path d="M217.9477 91.9978
L219.9697 89.9758
" />
<path d="M137.1977 53.9978
L139.2197 51.9758
" />
<path d="M190.7341 81.2120
L190.7160 81.2120
" />
<path d="M90.9858 54.7865
L90.9858 54.7713
" />
<path d="M146.7688 92.7740
L146.7688 92.7731
" />
<path d="M87.7477 94.7984
L89.7605 92.7856
" />
<path d="M225.2977 56.0984
L223.9858 54.7865
" />
<path d="M116.0477 94.0984
L114.7358 92.7865
" />
<path d="M174.5378 89.9885
L174.5207 89.9885
" />
<path d="M179.9477 91.9978
L181.9697 89.9758
" />
<path d="M80.8477 110.2984
L79.5378 108.9885
" />
<path d="M185.9841 43.2120
L185.9660 43.2120
" />
<path d="M237.0188 54.7773
L237.0188 54.7763
" />
<path d="M139.9977 56.7984
L142.0105 54.7856
" />
<path d="M146.6977 72.9978
L148.7197 70.9758
" />
<path d="M74.7878 51.9885
L74.7707 51.9885
" />
<path d="M72.7197 70.9758
L72.7197 70.9764
" />
<path d="M80.2619 130.7888
L80.2905 130.7888
" />
<path d="M143.2341 119.2120
L143.2160 119.2120
" />
<path d="M128.9858 54.7865
L128.9858 54.7713
" />
<path d="M99.1977 53.9984
L99.1977 53.9978
" />
<path d="M175.1977 53.9978
L177.2197 51.9758
" />
<path d="M113.5188 73.7773
L113.5188 73.7763
" />
<path d="M166.3477 110.2984
L165.0378 108.9885
" />
<path d="M98.5378 89.9885
L98.5207 89.9885
" />
<path d="M65.9477 110.9978
L67.9697 108.9758
" />
<path d="M228.7341 81.2120
L228.7160 81.2120
" />
<path d="M143.2358 130.7865
L143.2358 130.7713
" />
<path d="M162.9697 89.9758
L162.9697 89.9764
" />
<path d="M219.2341 100.2120
L219.2160 100.2120
" />
<path d="M61.1977 53.9984
L61.1977 53.9978
" />
<path d="M131.7878 51.9885
L131.7707 51.9885
" />
<path d="M123.0188 54.7773
L123.0188 54.7763
" />
<path d="M104.5977 72.2984
L103.2878 70.9885
" />
<path d="M166.9858 54.7865
L166.9858 54.7713
" />
<path d="M122.9477 91.9978
L124.9697 89.9758
" />
<path d="M170.4477 110.9951
L170.4477 110.9945
" />
<path d="M175.1977 53.9984
L175.1977 53.9978
" />
<path d="M76.0977 53.2984
L74.7878 51.9885
" />
<path d="M170.4477 110.9945
L172.4697 108.9725
" />
<path d="M122.2878 108.9885
L122.2707 108.9885
" />
<path d="M154.0477 94.0951
L152.7358 92.7833
" />
<path d="M132.4477 129.9984
L132.4477 129.9978
" />
<path d="M108.6977 72.9984
L108.6977 72.9978
" />
<path d="M233.4858 73.7865
L233.4858 73.7713
" />
<path d="M182.7477 94.7984
L184.7605 92.7856
" />
<path d="M213.2605 111.7856
L213.2890 111.7856
" />
<path d="M203.6977 72.9978
L205.7197 70.9758
" />
<path d="M92.4977 75.7984
L94.5105 73.7856
" />
<path d="M73.4977 75.7984
L75.5105 73.7856
" />
<path d="M68.7477 94.7984
L70.7605 92.7856
" />
<path d="M137.1977 53.9984
L137.1977 53.9978
" />
<path d="M133.7341 81.2120
L133.7160 81.2120
" />
<path d="M151.5105 73.7856
L151.5390 73.7856
" />
<path d="M99.1977 53.9978
L101.2197 51.9758
" />
<path d="M85.5977 72.2984
L84.2878 70.9885
" />
<path d="M169.7878 51.9885
L169.7707 51.9885
" />
<path d="M127.6977 72.9984
L127.6977 72.9978
" />
<path d="M71.9841 43.2120
L71.9660 43.2120
" />
<path d="M119.4858 73.7865
L119.4858 73.7713
" />
<path d="M209.7358 92.7865
L209.7358 92.7713
" />
<path d="M75.5188 73.7773
L75.5188 73.7763
" />
<path d="M122.9477 91.9984
L122.9477 91.9978
" />
<path d="M184.7605 92.7856
L184.7890 92.7856
" />
<path d="M94.4477 129.9984
L94.4477 129.9978
" />
<path d="M188.7878 51.9885
L188.7707 51.9885
" />
<path d="M97.0477 94.0984
L95.7358 92.7865
" />
<path d="M137.2605 111.7856
L137.2890 111.7856
" />
<path d="M180.0188 54.7773
L180.0188 54.7763
" />
<path d="M118.2605 130.7856
L118.2890 130.7856
" />
<path d="M232.1977 53.9978
L234.2197 51.9758
" />
<path d="M85.0105 54.7856
L85.0390 54.7856
" />
<path d="M124.9697 89.9758
L124.9697 89.9764
" />
<path d="M130.4977 75.7984
L132.5105 73.7856
" />
<path d="M167.7197 70.9758
L167.7197 70.9764
" />
<path d="M187.4977 75.7984
L189.5105 73.7856
" />
<path d="M165.0378 108.9885
L165.0207 108.9885
" />
<path d="M177.9977 56.7984
L180.0105 54.7856
" />
<path d="M86.2373 130.7898
L86.2373 130.7745
" />
<path d="M184.6977 72.9978
L186.7197 70.9758
" />
<path d="M71.9858 54.7865
L71.9858 54.7713
" />
<path d="M103.9477 91.9978
L105.9697 89.9758
" />
<path d="M163.7477 94.7984
L165.7605 92.7856
" />
<path d="M92.2977 56.0984
L90.9858 54.7865
" />
<path d="M194.8477 91.2984
L193.5378 89.9885
" />
<path d="M135.0477 94.0984
L133.7358 92.7865
" />
<path d="M114.7341 81.2120
L114.7160 81.2120
" />
<path d="M84.9477 110.9984
L84.9477 110.9978
" />
<path d="M142.0188 54.7773
L142.0188 54.7763
" />
<path d="M225.4977 75.7984
L227.5105 73.7856
" />
<path d="M104.0105 54.7856
L104.0390 54.7856
" />
<path d="M213.1977 53.9984
L213.1977 53.9978
" />
<path d="M127.6977 72.9978
L129.7197 70.9758
" />
<path d="M138.4841 62.2120
L138.4660 62.2120
" />
<path d="M177.2197 51.9758
L177.2197 51.9764
" />
<path d="M213.1977 53.9978
L215.2197 51.9758
" />
<path d="M158.7977 75.0984
L157.4858 73.7865
" />
<path d="M86.9697 89.9758
L86.9697 89.9764
" />
<path d="M190.0977 53.2984
L188.7878 51.9885
" />
<path d="M149.2977 56.0984
L147.9858 54.7865
" />
<path d="M175.8477 91.2984
L174.5378 89.9885
" />
<path d="M94.5105 73.7856
L94.5390 73.7856
" />
<path d="M78.0477 113.0984
L76.7358 111.7865
" />
<path d="M120.2197 51.9758
L120.2197 51.9764
" />
<path d="M157.4858 73.7865
L157.4858 73.7713
" />
<path d="M65.9477 91.9978
L67.9697 89.9758
" />
<path d="M245.7878 51.9885
L245.7707 51.9885
" />
<path d="M134.4697 127.9758
L134.4697 127.9764
" />
<path d="M146.0378 127.9885
L146.0207 127.9885
" />
<path d="M101.2197 51.9758
L101.2197 51.9764
" />
<path d="M231.5378 89.9885
L231.5207 89.9885
" />
<path d="M80.2703 130.7805
L80.2703 130.7796
" />
<path d="M110.7197 108.9758
L110.7197 108.9764
" />
<path d="M161.5977 72.2984
L160.2878 70.9885
" />
<path d="M195.4841 62.2120
L195.4660 62.2120
" />
<path d="M100.4841 62.2120
L100.4660 62.2120
" />
<path d="M154.2477 113.7984
L156.2605 111.7856
" />
<path d="M209.7341 81.2120
L209.7160 81.2120
" />
<path d="M128.9841 43.2120
L128.9660 43.2120
" />
<path d="M211.2477 113.7984
L213.2605 111.7856
" />
<path d="M103.9477 91.9984
L103.9477 91.9978
" />
<path d="M224.7197 70.9758
L224.7197 70.9764
" />
<path d="M112.7878 51.9885
L112.7707 51.9885
" />
<path d="M63.9977 56.7984
L66.0105 54.7856
" />
<path d="M244.2977 56.0984
L242.9858 54.7865
" />
<path d="M136.5378 89.9885
L136.5207 89.9885
" />
<path d="M141.9477 91.9951
L141.9477 91.9945
" />
<path d="M105.2341 119.2120
L105.2160 119.2120
" />
<path d="M196.2197 51.9758
L196.2197 51.9764
" />
<path d="M150.7878 51.9885
L150.7707 51.9885
" />
<path d="M139.2197 51.9758
L139.2197 51.9764
" />
<path d="M137.2688 130.7773
L137.2688 130.7763
" />
<path d="M128.3477 129.2984
L127.0378 127.9885
" />
<path d="M189.4477 110.9984
L189.4477 110.9978
" />
<path d="M94.4477 129.9978
L96.4697 127.9758
" />
<path d="M161.0188 54.7773
L161.0188 54.7763
" />
<path d="M99.8477 91.2984
L98.5378 89.9885
" />
<path d="M218.5977 72.2984
L217.2878 70.9885
" />
<path d="M217.2878 70.9885
L217.2707 70.9885
" />
<path d="M182.5477 113.0951
L181.2358 111.7833
" />
<path d="M219.9697 89.9758
L219.9697 89.9764
" />
<path d="M116.2477 132.7984
L118.2605 130.7856
" />
<path d="M89.7605 92.7856
L89.7890 92.7856
" />
<path d="M184.6977 72.9984
L184.6977 72.9978
" />
<path d="M84.9477 91.9978
L86.9697 89.9758
" />
<path d="M149.4977 75.7984
L151.5105 73.7856
" />
<path d="M214.4858 73.7865
L214.4858 73.7713
" />
<path d="M99.2605 130.7856
L99.2890 130.7856
" />
<path d="M233.4841 62.2120
L233.4660 62.2120
" />
<path d="M222.7605 92.7856
L222.7890 92.7856
" />
<path d="M144.5477 113.0984
L143.2358 111.7865
" />
<path d="M76.7341 81.2120
L76.7160 81.2120
" />
<path d="M234.2197 51.9758
L234.2197 51.9764
" />
<path d="M81.4858 73.7865
L81.4858 73.7713
" />
<path d="M120.7977 113.0984
L119.4858 111.7865
" />
<path d="M151.4477 110.9984
L151.4477 110.9978
" />
<path d="M132.5188 73.7773
L132.5188 73.7763
" />
<path d="M179.9477 91.9984
L179.9477 91.9978
" />
<path d="M67.9697 108.9758
L67.9697 108.9764
" />
<path d="M75.5105 73.7856
L75.5390 73.7856
" />
<path d="M218.0105 54.7856
L218.0390 54.7856
" />
<path d="M165.7688 92.7773
L165.7688 92.7763
" />
<path d="M165.7605 92.7856
L165.7890 92.7856
" />
<path d="M100.4858 73.7865
L100.4858 73.7713
" />
<path d="M147.9858 54.7865
L147.9858 54.7713
" />
<path d="M125.7477 94.7984
L127.7605 92.7856
" />
<path d="M113.4477 129.9984
L113.4477 129.9978
" />
<path d="M137.2688 111.7773
L137.2688 111.7763
" />
<path d="M203.6977 72.9984
L203.6977 72.9978
" />
<path d="M111.4977 113.7984
L113.5105 111.7856
" />
<path d="M208.5188 73.7773
L208.5188 73.7763
" />
<path d="M76.7358 111.7865
L76.7358 111.7713
" />
<path d="M223.9841 43.2120
L223.9660 43.2120
" />
<path d="M177.7977 75.0984
L176.4858 73.7865
" />
<path d="M101.9977 56.7984
L104.0105 54.7856
" />
<path d="M211.0477 94.0984
L209.7358 92.7865
" />
<path d="M237.0105 54.7856
L237.0390 54.7856
" />
<path d="M127.0378 127.9885
L127.0207 127.9885
" />
<path d="M86.2356 119.2152
L86.2174 119.2152
" />
<path d="M66.0188 54.7773
L66.0188 54.7763
" />
<path d="M213.8477 91.2984
L212.5378 89.9885
" />
<path d="M109.9858 54.7865
L109.9858 54.7713
" />
<path d="M132.5105 73.7856
L132.5390 73.7856
" />
<path d="M84.2878 70.9885
L84.2707 70.9885
" />
<path d="M135.2477 113.7984
L137.2605 111.7856
" />
<path d="M242.9858 54.7865
L242.9858 54.7713
" />
<path d="M127.7688 92.7773
L127.7688 92.7763
" />
<path d="M137.2605 130.7856
L137.2890 130.7856
" />
<path d="M230.0477 94.0984
L228.7358 92.7865
" />
<path d="M208.4477 110.9978
L210.4697 108.9758
" />
<path d="M84.9477 91.9984
L84.9477 91.9978
" />
<path d="M204.9841 43.2120
L204.9660 43.2120
" />
<path d="M147.3477 129.2984
L146.0378 127.9885
" />
<path d="M158.9977 56.7984
L161.0105 54.7856
" />
<path d="M105.9697 89.9758
L105.9697 89.9764
" />
<path d="M89.7688 92.7773
L89.7688 92.7763
" />
<path d="M97.2477 132.7984
L99.2605 130.7856
" />
<path d="M79.5378 89.9885
L79.5207 89.9885
" />
<path d="M170.5105 73.7856
L170.5390 73.7856
" />
<path d="M106.5477 132.0984
L105.2358 130.7865
" />
<path d="M170.5188 73.7773
L170.5188 73.7763
" />
<path d="M113.5105 111.7856
L113.5390 111.7856
" />
<path d="M183.5477 119.9984
L183.5477 119.9984
" />
<path d="M105.2358 130.7865
L105.2358 130.7713
" />
<path d="M85.0188 54.7773
L85.0188 54.7763
" />
<path d="M70.7605 111.7856
L70.7890 111.7856
" />
<path d="M192.2477 113.7984
L194.2605 111.7856
" />
<path d="M130.2977 56.0984
L128.9858 54.7865
" />
<path d="M86.9697 108.9758
L86.9697 108.9764
" />
<path d="M199.0188 54.7773
L199.0188 54.7763
" />
<path d="M198.9477 91.9978
L200.9697 89.9758
" />
<path d="M184.7688 92.7773
L184.7688 92.7763
" />
<path d="M183.5477 119.9984
L170.7477 132.7984
" />
<path d="M209.0977 53.2984
L207.7878 51.9885
" />
<path d="M97.0477 113.0984
L95.7358 111.7865
" />
<path d="M189.5105 73.7856
L189.5390 73.7856
" />
<path d="M113.5105 73.7856
L113.5390 73.7856
" />
<path d="M133.0977 53.2984
L131.7878 51.9885
" />
<path d="M237.5977 72.2984
L236.2878 70.9885
" />
<path d="M171.7358 92.7865
L171.7358 92.7713
" />
<path d="M158.2197 51.9758
L158.2197 51.9764
" />
<path d="M142.0105 54.7856
L142.0390 54.7856
" />
<path d="M143.9697 89.9725
L143.9697 89.9731
" />
<path d="M222.6977 72.9984
L222.6977 72.9978
" />
<path d="M152.0977 53.2984
L150.7878 51.9885
" />
<path d="M194.2688 111.7773
L194.2688 111.7763
" />
<path d="M63.2197 51.9758
L63.2197 51.9764
" />
<path d="M223.9858 54.7865
L223.9858 54.7713
" />
<path d="M185.3477 110.2951
L184.0378 108.9853
" />
<path d="M89.7688 111.7773
L89.7688 111.7763
" />
<path d="M143.2341 100.2120
L143.2160 100.2120
" />
<path d="M226.7878 51.9885
L226.7707 51.9885
" />
<path d="M165.6977 72.9978
L167.7197 70.9758
" />
<path d="M80.1977 53.9984
L80.1977 53.9978
" />
<path d="M118.2688 130.7773
L118.2688 130.7763
" />
<path d="M201.7477 94.7984
L203.7605 92.7856
" />
<path d="M168.2977 56.0984
L166.9858 54.7865
" />
<path d="M141.9477 91.9945
L143.9697 89.9725
" />
<path d="M118.1977 53.9984
L118.1977 53.9978
" />
<path d="M166.9841 43.2120
L166.9660 43.2120
" />
<path d="M70.7688 92.7773
L70.7688 92.7763
" />
<path d="M210.4697 108.9758
L210.4697 108.9764
" />
<path d="M203.7688 92.7773
L203.7688 92.7763
" />
<path d="M118.8477 91.2984
L117.5378 89.9885
" />
<path d="M124.2341 119.2120
L124.2160 119.2120
" />
<path d="M218.0188 54.7773
L218.0188 54.7763
" />
<path d="M220.7477 94.7984
L222.7605 92.7856
" />
<path d="M186.7197 70.9758
L186.7197 70.9764
" />
<path d="M201.5477 113.0984
L200.2358 111.7865
" />
<path d="M176.4858 73.7865
L176.4858 73.7713
" />
<path d="M215.7977 75.0984
L214.4858 73.7865
" />
<path d="M76.7341 100.2120
L76.7160 100.2120
" />
<path d="M113.4477 129.9978
L115.4697 127.9758
" />
<path d="M161.0105 54.7856
L161.0390 54.7856
" />
<path d="M173.2477 113.7951
L175.2605 111.7823
" />
<path d="M191.4697 108.9758
L191.4697 108.9764
" />
<path d="M172.4697 108.9725
L172.4697 108.9731
" />
<path d="M189.5188 73.7773
L189.5188 73.7763
" />
<path d="M215.2197 51.9758
L215.2197 51.9764
" />
<path d="M89.7605 111.7856
L89.7890 111.7856
" />
<path d="M222.6977 72.9978
L224.7197 70.9758
" />
<path d="M108.0378 127.9885
L108.0207 127.9885
" />
<path d="M222.0378 108.9885
L222.0207 108.9885
" />
<path d="M108.7605 92.7856
L108.7890 92.7856
" />
<path d="M91.7197 70.9758
L91.7197 70.9764
" />
<path d="M213.2688 111.7773
L213.2688 111.7763
" />
<path d="M160.9477 91.9978
L162.9697 89.9758
" />
<path d="M99.8477 110.2984
L98.5378 108.9885
" />
<path d="M168.4977 75.7984
L170.5105 73.7856
" />
<path d="M96.4697 127.9758
L96.4697 127.9764
" />
<path d="M134.4697 108.9758
L134.4697 108.9764
" />
<path d="M180.5977 72.2984
L179.2878 70.9885
" />
<path d="M108.6977 72.9978
L110.7197 70.9758
" />
<path d="M167.9477 129.9984
L180.7477 117.1984
" />
<path d="M155.5378 89.9853
L155.5207 89.9853
" />
<path d="M144.5477 132.0984
L143.2358 130.7865
" />
<path d="M171.0977 53.2984
L169.7878 51.9885
" />
<path d="M67.9697 89.9758
L67.9697 89.9764
" />
<path d="M90.9841 43.2120
L90.9660 43.2120
" />
<path d="M124.2358 130.7865
L124.2358 130.7713
" />
<path d="M234.7977 75.0984
L233.4858 73.7865
" />
<path d="M175.2605 111.7823
L175.2890 111.7823
" />
<path d="M189.4477 110.9978
L191.4697 108.9758
" />
<path d="M81.4841 62.2120
L81.4660 62.2120
" />
<path d="M114.7358 92.7865
L114.7358 92.7713
" />
<path d="M101.7977 75.0984
L100.4858 73.7865
" />
<path d="M184.0378 108.9853
L184.0207 108.9853
" />
<path d="M132.4477 129.9978
L134.4697 127.9758
" />
<path d="M176.4841 62.2120
L176.4660 62.2120
" />
<path d="M132.4477 110.9984
L132.4477 110.9978
" />
<path d="M143.2358 111.7865
L143.2358 111.7713
" />
<path d="M104.0188 54.7773
L104.0188 54.7763
" />
<path d="M179.2878 70.9885
L179.2707 70.9885
" />
<path d="M132.4477 110.9978
L134.4697 108.9758
" />
<path d="M146.6977 72.9984
L146.6977 72.9978
" />
<path d="M94.5188 73.7773
L94.5188 73.7763
" />
<path d="M82.9977 56.7984
L85.0105 54.7856
" />
<path d="M162.2358 111.7865
L162.2358 111.7713
" />
<path d="M95.0977 53.2984
L93.7878 51.9885
" />
<path d="M156.1977 53.9984
L156.1977 53.9978
" />
<path d="M89.6977 72.9984
L89.6977 72.9978
" />
<path d="M152.7358 92.7833
L152.7358 92.7681
" />
<path d="M160.9477 91.9984
L160.9477 91.9978
" />
<path d="M205.7197 70.9758
L205.7197 70.9764
" />
<path d="M119.4841 100.2120
L119.4660 100.2120
" />
<path d="M111.2977 56.0984
L109.9858 54.7865
" />
<path d="M114.0977 53.2984
L112.7878 51.9885
" />
<path d="M138.4858 73.7865
L138.4858 73.7713
" />
<path d="M167.9477 129.9978
L167.9477 129.9984
" />
<path d="M163.5477 113.0984
L162.2358 111.7865
" />
<path d="M65.9477 110.9984
L65.9477 110.9978
" />
<path d="M227.5188 73.7773
L227.5188 73.7763
" />
<path d="M156.1977 53.9978
L158.2197 51.9758
" />
<path d="M109.9841 43.2120
L109.9660 43.2120
" />
<path d="M151.5188 73.7773
L151.5188 73.7763
" />
<path d="M232.1977 53.9984
L232.1977 53.9978
" />
<path d="M137.8477 91.2984
L136.5378 89.9885
" />
<path d="M203.0378 108.9885
L203.0207 108.9885
" />
<path d="M198.9477 91.9984
L198.9477 91.9978
" />
<path d="M66.0105 54.7856
L66.0390 54.7856
" />
<path d="M194.1977 53.9984
L194.1977 53.9978
" />
<path d="M89.6977 72.9978
L91.7197 70.9758
" />
<path d="M181.9697 89.9758
L181.9697 89.9764
" />
<path d="M156.2605 111.7856
L156.2890 111.7856
" />
<path d="M236.2878 70.9885
L236.2707 70.9885
" />
<path d="M46.5000 134.5000
L46.5000 39.5000
" />
<path d="M135.2477 132.7984
L137.2605 130.7856
" />
<path d="M115.4697 127.9758
L115.4697 127.9764
" />
<path d="M87.7477 113.7984
L89.7605 111.7856
" />
<path d="M173.0477 94.0984
L171.7358 92.7865
" />
<path d="M147.3477 110.2984
L146.0378 108.9885
" />
<path d="M117.5378 89.9885
L117.5207 89.9885
" />
<path d="M127.7605 92.7856
L127.7890 92.7856
" />
<path d="M70.6977 72.9978
L72.7197 70.9758
" />
<path d="M146.7605 92.7823
L146.7890 92.7823
" />
<path d="M70.7688 111.7773
L70.7688 111.7763
" />
<path d="M78.2492 132.8016
L80.2619 130.7888
" />
<path d="M76.7358 92.7865
L76.7358 92.7713
" />
<path d="M123.5977 72.2984
L122.2878 70.9885
" />
<path d="M95.7358 92.7865
L95.7358 92.7713
" />
<path d="M120.7977 75.0984
L119.4858 73.7865
" />
<path d="M212.5378 89.9885
L212.5207 89.9885
" />
<path d="M80.8477 91.2984
L79.5378 89.9885
" />
<path d="M119.4841 62.2120
L119.4660 62.2120
" />
<path d="M208.5105 73.7856
L208.5390 73.7856
" />
<path d="M84.9477 110.9978
L86.9697 108.9758
" />
<path d="M157.4841 62.2120
L157.4660 62.2120
" />
<path d="M208.4477 110.9984
L208.4477 110.9978
" />
<path d="M108.7688 92.7773
L108.7688 92.7763
" />
<path d="M146.0378 108.9885
L146.0207 108.9885
" />
<path d="M79.5378 108.9885
L79.5207 108.9885
" />
<path d="M180.0105 54.7856
L180.0390 54.7856
" />
<path d="M106.7477 94.7984
L108.7605 92.7856
" />
<path d="M198.2878 70.9885
L198.2707 70.9885
" />
<path d="M80.1977 53.9978
L82.2197 51.9758
" />
<path d="M185.9858 54.7865
L185.9858 54.7713
" />
<path d="M200.2358 111.7865
L200.2358 111.7713
" />
<path d="M129.7197 70.9758
L129.7197 70.9764
" />
<path d="M82.2197 51.9758
L82.2197 51.9764
" />
<path d="M222.7688 92.7773
L222.7688 92.7763
" />
<path d="M147.9841 43.2120
L147.9660 43.2120
" />
<path d="M215.9977 56.7984
L218.0105 54.7856
" />
<path d="M123.5977 110.2984
L122.2878 108.9885
" />
<path d="M78.0477 94.0984
L76.7358 92.7865
" />
<path d="M234.9977 56.7984
L237.0105 54.7856
" />
<path d="M194.1977 53.9978
L196.2197 51.9758
" />
<path d="M200.2341 100.2120
L200.2160 100.2120
" />
<path d="M77.4712 127.9790
L77.4712 127.9796
" />
<path d="M153.4697 108.9758
L153.4697 108.9764
" />
<path d="M156.8477 91.2951
L155.5378 89.9853
" />
<path d="M139.7977 75.0984
L138.4858 73.7865
" />
<path d="M232.8477 91.2984
L231.5378 89.9885
" />
<path d="M203.7605 92.7856
L203.7890 92.7856
" />
<path d="M193.5378 89.9885
L193.5207 89.9885
" />
<path d="M108.6977 110.9978
L110.7197 108.9758
" />
<path d="M93.7878 51.9885
L93.7707 51.9885
" />
<path d="M65.9477 91.9984
L65.9477 91.9978
" />
<path d="M99.2688 130.7773
L99.2688 130.7763
" />
<path d="M49.0000 37.0000
L253.0000 37.0000
" />
<path d="M220.5477 113.0984
L219.2358 111.7865
" />
<path d="M70.6977 72.9984
L70.6977 72.9978
" />
<path d="M123.0105 54.7856
L123.0390 54.7856
" />
<path d="M98.5378 108.9885
L98.5207 108.9885
" />
<path d="M242.9841 43.2120
L242.9660 43.2120
" />
<path d="M194.2605 111.7856
L194.2890 111.7856
" />
<path d="M214.4841 62.2120
L214.4660 62.2120
" />
<path d="M181.2341 100.2087
L181.2160 100.2087
" />
<path d="M151.4477 110.9978
L153.4697 108.9758
" />
<path d="M75.4492 130.0010
L77.4712 127.9790
" />
<path d="M113.5188 111.7773
L113.5188 111.7763
" />
<path d="M75.4492 130.0016
L75.4492 130.0010
" />
<path d="M160.2878 70.9885
L160.2707 70.9885
" />
<path d="M199.5977 72.2984
L198.2878 70.9885
" />
<path d="M119.4858 111.7865
L119.4858 111.7713
" />
<path d="M90.3492 129.3016
L89.0393 127.9918
" />
<path d="M87.5492 132.1016
L86.2373 130.7898
" />
<path d="M118.1977 53.9978
L120.2197 51.9758
" />
<path d="M165.6977 72.9984
L165.6977 72.9978
" />
<path d="M228.7358 92.7865
L228.7358 92.7713
" />
<path d="M207.7878 51.9885
L207.7707 51.9885
" />
<path d="M141.2878 70.9885
L141.2707 70.9885
" />
<path d="M181.2358 111.7833
L181.2358 111.7681
" />
<path d="M95.7358 111.7865
L95.7358 111.7713
" />
<path d="M111.4977 75.7984
L113.5105 73.7856
" />
<path d="M247.0977 53.2984
L245.7878 51.9885
" />
<path d="M196.7977 75.0984
L195.4858 73.7865
" />
<path d="M199.0105 54.7856
L199.0390 54.7856
" />
<path d="M223.3477 110.2984
L222.0378 108.9885
" />
<path d="M133.7358 92.7865
L133.7358 92.7713
" />
<path d="M70.7605 92.7856
L70.7890 92.7856
" />
<path d="M162.2341 100.2120
L162.2160 100.2120
" />
<path d="M206.2977 56.0984
L204.9858 54.7865
" />
<path d="M190.7358 92.7865
L190.7358 92.7713
" />
<path d="M196.9977 56.7984
L199.0105 54.7856
" />
<path d="M192.0477 94.0984
L190.7358 92.7865
" />
<path d="M142.5977 72.2984
L141.2878 70.9885
" />
<path d="M217.9477 91.9984
L217.9477 91.9978
" />
<path d="M120.9977 56.7984
L123.0105 54.7856
" />
<path d="M122.2878 70.9885
L122.2707 70.9885
" />
<path d="M148.7197 70.9758
L148.7197 70.9764
" />
<path d="M95.7341 81.2120
L95.7160 81.2120
" />
<path d="M103.2878 70.9885
L103.2707 70.9885
" />
<path d="M73.2977 56.0984
L71.9858 54.7865
" />
<path d="M82.7977 75.0984
L81.4858 73.7865
" />
<path d="M227.5105 73.7856
L227.5390 73.7856
" />
<path d="M125.5477 132.0984
L124.2358 130.7865
" />
<path d="M204.9858 54.7865
L204.9858 54.7713
" />
<path d="M200.9697 89.9758
L200.9697 89.9764
" />
<path d="M152.7341 81.2087
L152.7160 81.2087
" />
<path d="M61.1977 53.9978
L63.2197 51.9758
" />
<path d="M175.2688 111.7740
L175.2688 111.7731
" />
<path d="M171.7341 81.2120
L171.7160 81.2120
" />
<path d="M187.2977 56.0984
L185.9858 54.7865
" />
<path d="M68.7477 113.7984
L70.7605 111.7856
" />
<path d="M110.7197 70.9758
L110.7197 70.9764
" />
<path d="M195.4858 73.7865
L195.4858 73.7713
" />
<path d="M204.3477 110.2984
L203.0378 108.9885
" />
<path d="M109.3477 129.2984
L108.0378 127.9885
" />
</g> 
</svg>
