<?xml version="1.0" standalone="no"?>
 <!DOCTYPE svg PUBLIC "-//W3C//DTD SVG 1.1//EN" 
 "http://www.w3.org/Graphics/SVG/1.1/DTD/svg11.dtd"> 
<svg
  xmlns:svg="http://www.w3.org/2000/svg"
  xmlns="http://www.w3.org/2000/svg"
  xmlns:xlink="http://www.w3.org/1999/xlink"
  version="1.1"
  width="419.9890mm" height="297.0022mm" viewBox="0.0000 0.0000 419.9890 297.0022">
<title>SVG Image created as PREH-Commander-F_Cu.svg date 2025/03/10 15:59:48 </title>
  <desc>Image generated by PCBNEW </desc>
<g style="fill:#000000; fill-opacity:1.0000;stroke:#000000; stroke-opacity:1.0000;
stroke-linecap:round; stroke-linejoin:round;"
 transform="translate(0 0) scale(1 1)">
</g>
<g style="fill:none; 
stroke:#000000; stroke-width:0.2000; stroke-opacity:1; 
stroke-linecap:round; stroke-linejoin:round;">
<path d="M257.2977 62.9984 A1.9799 1.9799 0.0 0 0 254.4977 60.1984" />
<path d="M243.0477 100.9984
L241.0237 103.0223
" />
<path d="M322.5390 73.7856 A6.5015 6.5015 0.0 0 0 328.4858 73.7713" />
<path d="M257.2977 62.9984
L255.2737 65.0223
" />
<path d="M347.5477 81.9984 A1.9799 1.9799 0.0 0 0 344.7477 79.1984" />
<path d="M341.5390 73.7856 A6.5015 6.5015 0.0 0 0 347.4858 73.7713" />
<path d="M303.5390 73.7856 A6.5015 6.5015 0.0 0 0 309.4858 73.7713" />
<path d="M272.7977 75.0984 A1.9799 1.9799 0.0 0 0 275.5977 72.2984" />
<path d="M297.2477 98.1984
L295.2160 100.2301
" />
<path d="M339.9977 41.1984
L337.9660 43.2301
" />
<path d="M298.6977 72.9984 A1.9799 1.9799 0.0 0 0 301.4977 75.7984" />
<path d="M268.0477 94.0984 A1.9799 1.9799 0.0 0 0 270.8477 91.2984" />
<path d="M268.7477 79.1984
L266.7160 81.2301
" />
<path d="M346.2890 130.7856 A6.5015 6.5015 0.0 0 0 352.2358 130.7713" />
<path d="M309.4660 62.2120 A6.5015 6.5015 0.0 0 0 300.7197 70.9758" />
<path d="M240.2477 98.1984
L238.2160 100.2301
" />
<path d="M264.7707 51.9885 A6.5015 6.5015 0.0 0 0 264.7737 46.0108" />
<path d="M344.0477 94.0984 A1.9799 1.9799 0.0 0 0 346.8477 91.2984" />
<path d="M233.5477 119.9984 A1.9799 1.9799 0.0 0 0 230.7477 117.1984" />
<path d="M328.4660 62.2120 A6.5015 6.5015 0.0 0 0 319.7197 70.9758" />
<path d="M333.2977 62.9984
L331.2737 65.0223
" />
<path d="M266.7977 43.9984 A1.9799 1.9799 0.0 0 0 263.9977 41.1984" />
<path d="M217.9477 129.9984 A1.9799 1.9799 0.0 0 0 220.7477 132.7984" />
<path d="M289.1977 53.9984 A1.9799 1.9799 0.0 0 0 291.9977 56.7984" />
<path d="M260.7890 92.7856 A6.5015 6.5015 0.0 0 0 266.7358 92.7713" />
<path d="M301.2977 56.0984 A1.9799 1.9799 0.0 0 0 304.0977 53.2984" />
<path d="M293.9477 91.9984 A1.9799 1.9799 0.0 0 0 296.7477 94.7984" />
<path d="M266.7160 81.2120 A6.5015 6.5015 0.0 0 0 257.9697 89.9758" />
<path d="M241.7890 92.7856 A6.5015 6.5015 0.0 0 0 247.7358 92.7713" />
<path d="M342.7977 100.9984
L340.7737 103.0223
" />
<path d="M328.5477 81.9984 A1.9799 1.9799 0.0 0 0 325.7477 79.1984" />
<path d="M306.0477 94.0984 A1.9799 1.9799 0.0 0 0 308.8477 91.2984" />
<path d="M278.2477 98.1984
L276.2160 100.2301
" />
<path d="M263.2977 56.0984 A1.9799 1.9799 0.0 0 0 266.0977 53.2984" />
<path d="M315.5477 132.0984 A1.9799 1.9799 0.0 0 0 318.3477 129.2984" />
<path d="M290.5477 81.9984
L288.5237 84.0223
" />
<path d="M298.0208 108.9885 A6.5015 6.5015 0.0 0 0 298.0237 103.0108" />
<path d="M271.4660 62.2120 A6.5015 6.5015 0.0 0 0 262.7197 70.9758" />
<path d="M342.7977 43.9984 A1.9799 1.9799 0.0 0 0 339.9977 41.1984" />
<path d="M287.7477 79.1984
L285.7160 81.2301
" />
<path d="M352.2977 62.9984 A1.9799 1.9799 0.0 0 0 349.4977 60.1984" />
<path d="M329.7977 75.0984 A1.9799 1.9799 0.0 0 0 332.5977 72.2984" />
<path d="M358.9977 41.1984
L356.9660 43.2301
" />
<path d="M317.6977 72.9984 A1.9799 1.9799 0.0 0 0 320.4977 75.7984" />
<path d="M273.4977 60.1984
L271.4660 62.2301
" />
<path d="M274.2708 70.9885 A6.5015 6.5015 0.0 0 0 274.2737 65.0108" />
<path d="M283.7977 119.9984 A1.9799 1.9799 0.0 0 0 280.9977 117.1984" />
<path d="M315.5477 113.0984 A1.9799 1.9799 0.0 0 0 318.3477 110.2984" />
<path d="M257.2160 100.2120 A6.5015 6.5015 0.0 0 0 248.4697 108.9758" />
<path d="M252.5477 81.9984 A1.9799 1.9799 0.0 0 0 249.7477 79.1984" />
<path d="M340.7708 51.9885 A6.5015 6.5015 0.0 0 0 340.7737 46.0108" />
<path d="M348.7977 75.0984 A1.9799 1.9799 0.0 0 0 351.5977 72.2984" />
<path d="M344.7477 79.1984
L342.7160 81.2301
" />
<path d="M370.5000 124.0000 A1.5000 1.5000 0.0 0 0 370.5000 127.0000" />
<path d="M246.5390 73.7856 A6.5015 6.5015 0.0 0 0 252.4858 73.7713" />
<path d="M303.4477 110.9984 A1.9799 1.9799 0.0 0 0 306.2477 113.7984" />
<path d="M314.2977 62.9984 A1.9799 1.9799 0.0 0 0 311.4977 60.1984" />
<path d="M227.4477 110.9984 A1.9799 1.9799 0.0 0 0 230.2477 113.7984" />
<path d="M327.1977 110.9984 A1.9799 1.9799 0.0 0 0 329.9977 113.7984" />
<path d="M345.5208 89.9885 A6.5015 6.5015 0.0 0 0 345.5237 84.0108" />
<path d="M259.2477 98.1984
L257.2160 100.2301
" />
<path d="M321.7708 51.9885 A6.5015 6.5015 0.0 0 0 321.7737 46.0108" />
<path d="M295.2160 100.2120 A6.5015 6.5015 0.0 0 0 286.4697 108.9758" />
<path d="M337.9660 43.2120 A6.5015 6.5015 0.0 0 0 329.2197 51.9758" />
<path d="M342.7977 43.9984
L340.7737 46.0223
" />
<path d="M276.2977 62.9984 A1.9799 1.9799 0.0 0 0 273.4977 60.1984" />
<path d="M334.5477 132.0984 A1.9799 1.9799 0.0 0 0 337.3477 129.2984" />
<path d="M232.2890 111.7856 A6.5015 6.5015 0.0 0 0 238.2358 111.7713" />
<path d="M241.6977 72.9984 A1.9799 1.9799 0.0 0 0 244.4977 75.7984" />
<path d="M319.0477 100.9984 A1.9799 1.9799 0.0 0 0 316.2477 98.1984" />
<path d="M304.7977 43.9984 A1.9799 1.9799 0.0 0 0 301.9977 41.1984" />
<path d="M347.4660 62.2120 A6.5015 6.5015 0.0 0 0 338.7197 70.9758" />
<path d="M331.2708 70.9885 A6.5015 6.5015 0.0 0 0 331.2737 65.0108" />
<path d="M312.9477 91.9984 A1.9799 1.9799 0.0 0 0 315.7477 94.7984" />
<path d="M230.0477 132.0984 A1.9799 1.9799 0.0 0 0 232.8477 129.2984" />
<path d="M276.2977 62.9984
L274.2737 65.0223
" />
<path d="M311.4977 60.1984
L309.4660 62.2301
" />
<path d="M281.0477 100.9984
L279.0237 103.0223
" />
<path d="M319.0477 119.9984
L317.0237 122.0223
" />
<path d="M300.0477 100.9984
L298.0237 103.0223
" />
<path d="M285.7977 43.9984 A1.9799 1.9799 0.0 0 0 282.9977 41.1984" />
<path d="M295.2977 62.9984
L293.2737 65.0223
" />
<path d="M243.0477 100.9984 A1.9799 1.9799 0.0 0 0 240.2477 98.1984" />
<path d="M276.2160 100.2120 A6.5015 6.5015 0.0 0 0 267.4697 108.9758" />
<path d="M222.7890 130.7856 A6.5015 6.5015 0.0 0 0 228.7358 130.7713" />
<path d="M338.0477 119.9984
L336.0237 122.0223
" />
<path d="M279.0208 108.9885 A6.5015 6.5015 0.0 0 0 279.0237 103.0108" />
<path d="M342.7160 81.2120 A6.5015 6.5015 0.0 0 0 333.9697 89.9758" />
<path d="M308.2890 111.7856 A6.5015 6.5015 0.0 0 0 314.2358 111.7713" />
<path d="M284.4477 110.9984 A1.9799 1.9799 0.0 0 0 287.2477 113.7984" />
<path d="M289.2890 111.7856 A6.5015 6.5015 0.0 0 0 295.2358 111.7713" />
<path d="M376.5000 39.5000 A2.5000 2.5000 0.0 0 0 374.0000 37.0000" />
<path d="M293.2708 70.9885 A6.5015 6.5015 0.0 0 0 293.2737 65.0108" />
<path d="M337.9660 100.2120 A6.5015 6.5015 0.0 0 0 329.2197 108.9758" />
<path d="M262.0477 100.9984
L260.0237 103.0223
" />
<path d="M231.5207 127.9885 A6.5015 6.5015 0.0 0 0 231.5237 122.0108" />
<path d="M230.7477 117.1984
L228.7160 119.2301
" />
<path d="M353.5477 132.0984 A1.9799 1.9799 0.0 0 0 356.3477 129.2984" />
<path d="M287.0477 94.0984 A1.9799 1.9799 0.0 0 0 289.8477 91.2984" />
<path d="M338.0477 119.9984 A1.9799 1.9799 0.0 0 0 335.2477 117.1984" />
<path d="M282.2977 56.0984 A1.9799 1.9799 0.0 0 0 285.0977 53.2984" />
<path d="M292.4977 60.1984
L290.4660 62.2301
" />
<path d="M336.6977 72.9984 A1.9799 1.9799 0.0 0 0 339.4977 75.7984" />
<path d="M255.9477 91.9984 A1.9799 1.9799 0.0 0 0 258.7477 94.7984" />
<path d="M301.9977 41.1984
L299.9660 43.2301
" />
<path d="M284.5390 73.7856 A6.5015 6.5015 0.0 0 0 290.4858 73.7713" />
<path d="M319.0477 119.9984 A1.9799 1.9799 0.0 0 0 316.2477 117.1984" />
<path d="M346.1977 53.9984 A1.9799 1.9799 0.0 0 0 348.9977 56.7984" />
<path d="M268.1977 129.9984 A1.9799 1.9799 0.0 0 0 270.9977 132.7984" />
<path d="M307.5208 89.9885 A6.5015 6.5015 0.0 0 0 307.5237 84.0108" />
<path d="M266.7977 43.9984
L264.7737 46.0223
" />
<path d="M332.0390 111.7856 A6.5015 6.5015 0.0 0 0 337.9858 111.7713" />
<path d="M303.4477 129.9984 A1.9799 1.9799 0.0 0 0 306.2477 132.7984" />
<path d="M300.0477 100.9984 A1.9799 1.9799 0.0 0 0 297.2477 98.1984" />
<path d="M347.5477 81.9984
L345.5237 84.0223
" />
<path d="M326.5208 89.9885 A6.5015 6.5015 0.0 0 0 326.5237 84.0108" />
<path d="M317.7890 92.7856 A6.5015 6.5015 0.0 0 0 323.7358 92.7713" />
<path d="M332.0390 54.7856 A6.5015 6.5015 0.0 0 0 337.9858 54.7713" />
<path d="M352.2977 62.9984
L350.2737 65.0223
" />
<path d="M314.2160 119.2120 A6.5015 6.5015 0.0 0 0 305.4697 127.9758" />
<path d="M298.7890 92.7856 A6.5015 6.5015 0.0 0 0 304.7358 92.7713" />
<path d="M304.7160 81.2120 A6.5015 6.5015 0.0 0 0 295.9697 89.9758" />
<path d="M271.5477 81.9984 A1.9799 1.9799 0.0 0 0 268.7477 79.1984" />
<path d="M252.4660 62.2120 A6.5015 6.5015 0.0 0 0 243.7197 70.9758" />
<path d="M361.7977 43.9984 A1.9799 1.9799 0.0 0 0 358.9977 41.1984" />
<path d="M252.5477 81.9984
L250.5237 84.0223
" />
<path d="M317.0208 108.9885 A6.5015 6.5015 0.0 0 0 317.0237 103.0108" />
<path d="M359.7708 51.9885 A6.5015 6.5015 0.0 0 0 359.7737 46.0108" />
<path d="M238.2160 100.2120 A6.5015 6.5015 0.0 0 0 229.4697 108.9758" />
<path d="M249.7477 79.1984
L247.7160 81.2301
" />
<path d="M339.9977 98.1984
L337.9660 100.2301
" />
<path d="M228.7160 119.2120 A6.5015 6.5015 0.0 0 0 219.9697 127.9758" />
<path d="M356.9660 43.2120 A6.5015 6.5015 0.0 0 0 348.2197 51.9758" />
<path d="M251.2890 111.7856 A6.5015 6.5015 0.0 0 0 257.2358 111.7713" />
<path d="M312.2708 70.9885 A6.5015 6.5015 0.0 0 0 312.2737 65.0108" />
<path d="M372.5000 70.0000 A1.5000 1.5000 0.0 0 0 372.5000 67.0000" />
<path d="M317.0208 127.9885 A6.5015 6.5015 0.0 0 0 317.0237 122.0108" />
<path d="M310.7977 75.0984 A1.9799 1.9799 0.0 0 0 313.5977 72.2984" />
<path d="M270.1977 53.9984 A1.9799 1.9799 0.0 0 0 272.9977 56.7984" />
<path d="M282.9977 41.1984
L280.9660 43.2301
" />
<path d="M349.4977 60.1984
L347.4660 62.2301
" />
<path d="M275.0390 54.7856 A6.5015 6.5015 0.0 0 0 280.9858 54.7713" />
<path d="M269.5207 89.9885 A6.5015 6.5015 0.0 0 0 269.5237 84.0108" />
<path d="M306.7477 79.1984
L304.7160 81.2301
" />
<path d="M277.5477 113.0984 A1.9799 1.9799 0.0 0 0 280.3477 110.2984" />
<path d="M281.0477 100.9984 A1.9799 1.9799 0.0 0 0 278.2477 98.1984" />
<path d="M314.2160 100.2120 A6.5015 6.5015 0.0 0 0 305.4697 108.9758" />
<path d="M295.2977 62.9984 A1.9799 1.9799 0.0 0 0 292.4977 60.1984" />
<path d="M260.6977 72.9984 A1.9799 1.9799 0.0 0 0 263.4977 75.7984" />
<path d="M339.2977 56.0984 A1.9799 1.9799 0.0 0 0 342.0977 53.2984" />
<path d="M309.5477 81.9984
L307.5237 84.0223
" />
<path d="M323.7977 43.9984 A1.9799 1.9799 0.0 0 0 320.9977 41.1984" />
<path d="M304.7977 43.9984
L302.7737 46.0223
" />
<path d="M279.7890 92.7856 A6.5015 6.5015 0.0 0 0 285.7358 92.7713" />
<path d="M285.7977 43.9984
L283.7737 46.0223
" />
<path d="M253.7977 75.0984 A1.9799 1.9799 0.0 0 0 256.5977 72.2984" />
<path d="M249.0477 94.0984 A1.9799 1.9799 0.0 0 0 251.8477 91.2984" />
<path d="M374.0000 137.0000 A2.5000 2.5000 0.0 0 0 376.5000 134.5000" />
<path d="M255.2707 70.9885 A6.5015 6.5015 0.0 0 0 255.2737 65.0108" />
<path d="M247.7160 81.2120 A6.5015 6.5015 0.0 0 0 238.9697 89.9758" />
<path d="M352.2160 119.2120 A6.5015 6.5015 0.0 0 0 343.4697 127.9758" />
<path d="M328.5477 81.9984
L326.5237 84.0223
" />
<path d="M325.0477 94.0984 A1.9799 1.9799 0.0 0 0 327.8477 91.2984" />
<path d="M308.2890 130.7856 A6.5015 6.5015 0.0 0 0 314.2358 130.7713" />
<path d="M333.2977 62.9984 A1.9799 1.9799 0.0 0 0 330.4977 60.1984" />
<path d="M340.7708 108.9885 A6.5015 6.5015 0.0 0 0 340.7737 103.0108" />
<path d="M258.5477 113.0984 A1.9799 1.9799 0.0 0 0 261.3477 110.2984" />
<path d="M256.0390 54.7856 A6.5015 6.5015 0.0 0 0 261.9858 54.7713" />
<path d="M239.5477 113.0984 A1.9799 1.9799 0.0 0 0 242.3477 110.2984" />
<path d="M323.7160 81.2120 A6.5015 6.5015 0.0 0 0 314.9697 89.9758" />
<path d="M355.0208 127.9885 A6.5015 6.5015 0.0 0 0 355.0237 122.0108" />
<path d="M372.5000 127.0000 A1.5000 1.5000 0.0 0 0 372.5000 124.0000" />
<path d="M309.5477 81.9984 A1.9799 1.9799 0.0 0 0 306.7477 79.1984" />
<path d="M246.4477 110.9984 A1.9799 1.9799 0.0 0 0 249.2477 113.7984" />
<path d="M280.9660 43.2120 A6.5015 6.5015 0.0 0 0 272.2197 51.9758" />
<path d="M254.4977 60.1984
L252.4660 62.2301
" />
<path d="M279.6977 72.9984 A1.9799 1.9799 0.0 0 0 282.4977 75.7984" />
<path d="M319.0477 100.9984
L317.0237 103.0223
" />
<path d="M322.4477 129.9984 A1.9799 1.9799 0.0 0 0 325.2477 132.7984" />
<path d="M323.7977 43.9984
L321.7737 46.0223
" />
<path d="M241.0207 108.9885 A6.5015 6.5015 0.0 0 0 241.0237 103.0108" />
<path d="M290.5477 81.9984 A1.9799 1.9799 0.0 0 0 287.7477 79.1984" />
<path d="M331.9477 91.9984 A1.9799 1.9799 0.0 0 0 334.7477 94.7984" />
<path d="M330.4977 60.1984
L328.4660 62.2301
" />
<path d="M314.2977 62.9984
L312.2737 65.0223
" />
<path d="M302.7708 51.9885 A6.5015 6.5015 0.0 0 0 302.7737 46.0108" />
<path d="M320.2977 56.0984 A1.9799 1.9799 0.0 0 0 323.0977 53.2984" />
<path d="M262.0477 100.9984 A1.9799 1.9799 0.0 0 0 259.2477 98.1984" />
<path d="M335.2477 117.1984
L333.2160 119.2301
" />
<path d="M260.0207 108.9885 A6.5015 6.5015 0.0 0 0 260.0237 103.0108" />
<path d="M296.5477 113.0984 A1.9799 1.9799 0.0 0 0 299.3477 110.2984" />
<path d="M357.0477 119.9984 A1.9799 1.9799 0.0 0 0 354.2477 117.1984" />
<path d="M308.1977 53.9984 A1.9799 1.9799 0.0 0 0 310.9977 56.7984" />
<path d="M313.0390 54.7856 A6.5015 6.5015 0.0 0 0 318.9858 54.7713" />
<path d="M236.9477 91.9984 A1.9799 1.9799 0.0 0 0 239.7477 94.7984" />
<path d="M327.2890 130.7856 A6.5015 6.5015 0.0 0 0 333.2358 130.7713" />
<path d="M320.9977 41.1984
L318.9660 43.2301
" />
<path d="M271.5477 81.9984
L269.5237 84.0223
" />
<path d="M285.7160 81.2120 A6.5015 6.5015 0.0 0 0 276.9697 89.9758" />
<path d="M370.5000 67.0000 A1.5000 1.5000 0.0 0 0 370.5000 70.0000" />
<path d="M265.5390 73.7856 A6.5015 6.5015 0.0 0 0 271.4858 73.7713" />
<path d="M351.0390 54.7856 A6.5015 6.5015 0.0 0 0 356.9858 54.7713" />
<path d="M336.0208 127.9885 A6.5015 6.5015 0.0 0 0 336.0237 122.0108" />
<path d="M336.7890 92.7856 A6.5015 6.5015 0.0 0 0 342.7358 92.7713" />
<path d="M316.2477 117.1984
L314.2160 119.2301
" />
<path d="M270.2890 111.7856 A6.5015 6.5015 0.0 0 0 276.2358 111.7713" />
<path d="M263.9977 41.1984
L261.9660 43.2301
" />
<path d="M318.9660 43.2120 A6.5015 6.5015 0.0 0 0 310.2197 51.9758" />
<path d="M294.0390 54.7856 A6.5015 6.5015 0.0 0 0 299.9858 54.7713" />
<path d="M274.9477 91.9984 A1.9799 1.9799 0.0 0 0 277.7477 94.7984" />
<path d="M288.5208 89.9885 A6.5015 6.5015 0.0 0 0 288.5237 84.0108" />
<path d="M341.4477 129.9984 A1.9799 1.9799 0.0 0 0 344.2477 132.7984" />
<path d="M291.7977 75.0984 A1.9799 1.9799 0.0 0 0 294.5977 72.2984" />
<path d="M339.2977 113.0984 A1.9799 1.9799 0.0 0 0 342.0977 110.2984" />
<path d="M316.2477 98.1984
L314.2160 100.2301
" />
<path d="M299.9660 43.2120 A6.5015 6.5015 0.0 0 0 291.2197 51.9758" />
<path d="M265.4477 110.9984 A1.9799 1.9799 0.0 0 0 268.2477 113.7984" />
<path d="M250.5207 89.9885 A6.5015 6.5015 0.0 0 0 250.5237 84.0108" />
<path d="M283.7708 51.9885 A6.5015 6.5015 0.0 0 0 283.7737 46.0108" />
<path d="M357.0477 119.9984
L355.0237 122.0223
" />
<path d="M325.7477 79.1984
L323.7160 81.2301
" />
<path d="M361.7977 43.9984
L359.7737 46.0223
" />
<path d="M251.1977 53.9984 A1.9799 1.9799 0.0 0 0 253.9977 56.7984" />
<path d="M354.2477 117.1984
L352.2160 119.2301
" />
<path d="M290.4660 62.2120 A6.5015 6.5015 0.0 0 0 281.7197 70.9758" />
<path d="M261.9660 43.2120 A6.5015 6.5015 0.0 0 0 253.2197 51.9758" />
<path d="M342.7977 100.9984 A1.9799 1.9799 0.0 0 0 339.9977 98.1984" />
<path d="M233.5477 119.9984
L231.5237 122.0223
" />
<path d="M327.1977 53.9984 A1.9799 1.9799 0.0 0 0 329.9977 56.7984" />
<path d="M358.2977 56.0984 A1.9799 1.9799 0.0 0 0 361.0977 53.2984" />
<path d="M350.2708 70.9885 A6.5015 6.5015 0.0 0 0 350.2737 65.0108" />
<path d="M333.2160 119.2120 A6.5015 6.5015 0.0 0 0 324.4697 127.9758" />
<path d="M370.5000 124.0000
L372.5000 124.0000
" />
<path d="M370.5000 127.0000
L372.5000 127.0000
" />
<path d="M370.5000 70.0000
L372.5000 70.0000
" />
<path d="M370.5000 67.0000
L372.5000 67.0000
" />
<path d="M212.0000 127.5000
L225.5000 114.0000
" />
<path d="M329.2197 108.9758
L329.2197 108.9764
" />
<path d="M261.9841 43.2120
L261.9660 43.2120
" />
<path d="M300.7197 70.9758
L300.7197 70.9764
" />
<path d="M308.2605 111.7856
L308.2890 111.7856
" />
<path d="M303.5105 73.7856
L303.5390 73.7856
" />
<path d="M333.2358 130.7865
L333.2358 130.7713
" />
<path d="M358.2977 56.0984
L356.9858 54.7865
" />
<path d="M276.9697 89.9758
L276.9697 89.9764
" />
<path d="M285.7358 92.7865
L285.7358 92.7713
" />
<path d="M298.7688 92.7773
L298.7688 92.7763
" />
<path d="M346.2605 130.7856
L346.2890 130.7856
" />
<path d="M268.0477 94.0984
L266.7358 92.7865
" />
<path d="M334.7477 94.7984
L336.7605 92.7856
" />
<path d="M346.2688 130.7773
L346.2688 130.7763
" />
<path d="M348.2197 51.9758
L348.2197 51.9764
" />
<path d="M283.7977 119.9984
L283.7977 119.9984
" />
<path d="M253.2197 51.9758
L253.2197 51.9764
" />
<path d="M341.4477 129.9984
L341.4477 129.9978
" />
<path d="M265.5105 73.7856
L265.5390 73.7856
" />
<path d="M314.2358 111.7865
L314.2358 111.7713
" />
<path d="M283.7878 51.9885
L283.7707 51.9885
" />
<path d="M317.6977 72.9978
L319.7197 70.9758
" />
<path d="M238.2341 100.2120
L238.2160 100.2120
" />
<path d="M322.5188 73.7773
L322.5188 73.7763
" />
<path d="M356.3477 129.2984
L355.0378 127.9885
" />
<path d="M347.4841 62.2120
L347.4660 62.2120
" />
<path d="M247.7358 92.7865
L247.7358 92.7713
" />
<path d="M269.5378 89.9885
L269.5207 89.9885
" />
<path d="M345.5378 89.9885
L345.5207 89.9885
" />
<path d="M346.1977 53.9978
L348.2197 51.9758
" />
<path d="M352.2358 130.7865
L352.2358 130.7713
" />
<path d="M327.1977 53.9978
L329.2197 51.9758
" />
<path d="M255.2878 70.9885
L255.2707 70.9885
" />
<path d="M249.2477 113.7984
L251.2605 111.7856
" />
<path d="M341.4477 129.9978
L343.4697 127.9758
" />
<path d="M296.7477 94.7984
L298.7605 92.7856
" />
<path d="M314.2341 119.2120
L314.2160 119.2120
" />
<path d="M317.7688 92.7773
L317.7688 92.7763
" />
<path d="M239.5000 80.0000
L239.5000 66.5000
" />
<path d="M271.4858 73.7865
L271.4858 73.7713
" />
<path d="M329.9977 113.7984
L332.0105 111.7856
" />
<path d="M270.2605 111.7856
L270.2890 111.7856
" />
<path d="M352.2341 119.2120
L352.2160 119.2120
" />
<path d="M336.0378 127.9885
L336.0207 127.9885
" />
<path d="M232.2688 111.7773
L232.2688 111.7763
" />
<path d="M284.4477 110.9984
L284.4477 110.9978
" />
<path d="M299.9858 54.7865
L299.9858 54.7713
" />
<path d="M246.4477 110.9978
L248.4697 108.9758
" />
<path d="M252.4858 73.7865
L252.4858 73.7713
" />
<path d="M294.5977 72.2984
L293.2878 70.9885
" />
<path d="M293.9477 91.9978
L295.9697 89.9758
" />
<path d="M320.2977 56.0984
L318.9858 54.7865
" />
<path d="M309.4841 62.2120
L309.4660 62.2120
" />
<path d="M348.7977 75.0984
L347.4858 73.7865
" />
<path d="M270.8477 91.2984
L269.5378 89.9885
" />
<path d="M266.0977 53.2984
L264.7878 51.9885
" />
<path d="M304.7341 81.2120
L304.7160 81.2120
" />
<path d="M230.2477 113.7984
L232.2605 111.7856
" />
<path d="M317.0378 127.9885
L317.0207 127.9885
" />
<path d="M250.5378 89.9885
L250.5207 89.9885
" />
<path d="M332.0188 111.7773
L332.0188 111.7763
" />
<path d="M258.5477 113.0984
L257.2358 111.7865
" />
<path d="M268.1977 129.9984
L280.9977 117.1984
" />
<path d="M251.2605 111.7856
L251.2890 111.7856
" />
<path d="M329.9977 56.7984
L332.0105 54.7856
" />
<path d="M305.4697 127.9758
L305.4697 127.9764
" />
<path d="M283.7977 119.9984
L270.9977 132.7984
" />
<path d="M241.0378 108.9885
L241.0207 108.9885
" />
<path d="M341.5105 73.7856
L341.5390 73.7856
" />
<path d="M298.6977 72.9984
L298.6977 72.9978
" />
<path d="M315.7477 94.7984
L317.7605 92.7856
" />
<path d="M376.5000 39.5000
L376.5000 134.5000
" />
<path d="M252.4841 62.2120
L252.4660 62.2120
" />
<path d="M261.9858 54.7865
L261.9858 54.7713
" />
<path d="M290.4858 73.7865
L290.4858 73.7713
" />
<path d="M266.7341 81.2120
L266.7160 81.2120
" />
<path d="M247.7341 81.2120
L247.7160 81.2120
" />
<path d="M306.0477 94.0984
L304.7358 92.7865
" />
<path d="M272.9977 56.7984
L275.0105 54.7856
" />
<path d="M306.2477 113.7984
L308.2605 111.7856
" />
<path d="M270.1977 53.9984
L270.1977 53.9978
" />
<path d="M279.6977 72.9984
L279.6977 72.9978
" />
<path d="M260.7688 92.7773
L260.7688 92.7763
" />
<path d="M340.7878 108.9885
L340.7707 108.9885
" />
<path d="M299.3477 110.2984
L298.0378 108.9885
" />
<path d="M324.4697 127.9758
L324.4697 127.9764
" />
<path d="M238.9697 89.9758
L238.9697 89.9764
" />
<path d="M336.6977 72.9978
L338.7197 70.9758
" />
<path d="M232.8477 129.2984
L231.5378 127.9885
" />
<path d="M308.1977 53.9978
L310.2197 51.9758
" />
<path d="M255.9477 91.9984
L255.9477 91.9978
" />
<path d="M308.2688 130.7773
L308.2688 130.7763
" />
<path d="M317.7605 92.7856
L317.7890 92.7856
" />
<path d="M344.2477 132.7984
L346.2605 130.7856
" />
<path d="M217.9477 129.9984
L217.9477 129.9978
" />
<path d="M322.4477 129.9984
L322.4477 129.9978
" />
<path d="M322.4477 129.9978
L324.4697 127.9758
" />
<path d="M337.9858 111.7865
L337.9858 111.7713
" />
<path d="M355.0378 127.9885
L355.0207 127.9885
" />
<path d="M307.5378 89.9885
L307.5207 89.9885
" />
<path d="M303.4477 110.9978
L305.4697 108.9758
" />
<path d="M256.0188 54.7773
L256.0188 54.7763
" />
<path d="M331.9477 91.9984
L331.9477 91.9978
" />
<path d="M279.7688 92.7773
L279.7688 92.7763
" />
<path d="M289.2688 111.7773
L289.2688 111.7763
" />
<path d="M338.7197 70.9758
L338.7197 70.9764
" />
<path d="M257.9697 89.9758
L257.9697 89.9764
" />
<path d="M258.7477 94.7984
L260.7605 92.7856
" />
<path d="M289.1977 53.9984
L289.1977 53.9978
" />
<path d="M275.5977 72.2984
L274.2878 70.9885
" />
<path d="M303.4477 129.9978
L305.4697 127.9758
" />
<path d="M347.4858 73.7865
L347.4858 73.7713
" />
<path d="M325.0477 94.0984
L323.7358 92.7865
" />
<path d="M319.7197 70.9758
L319.7197 70.9764
" />
<path d="M235.0000 84.5000
L239.5000 80.0000
" />
<path d="M279.0378 108.9885
L279.0207 108.9885
" />
<path d="M246.5105 73.7856
L246.5390 73.7856
" />
<path d="M251.8477 91.2984
L250.5378 89.9885
" />
<path d="M290.4841 62.2120
L290.4660 62.2120
" />
<path d="M332.0188 54.7773
L332.0188 54.7763
" />
<path d="M332.5977 72.2984
L331.2878 70.9885
" />
<path d="M308.8477 91.2984
L307.5378 89.9885
" />
<path d="M248.4697 108.9758
L248.4697 108.9764
" />
<path d="M315.5477 132.0984
L314.2358 130.7865
" />
<path d="M268.1977 129.9978
L268.1977 129.9984
" />
<path d="M285.0977 53.2984
L283.7878 51.9885
" />
<path d="M274.9477 91.9978
L276.9697 89.9758
" />
<path d="M282.4977 75.7984
L284.5105 73.7856
" />
<path d="M251.2688 111.7773
L251.2688 111.7763
" />
<path d="M348.9977 56.7984
L351.0105 54.7856
" />
<path d="M241.7688 92.7773
L241.7688 92.7763
" />
<path d="M249.0000 45.5000
L253.0000 41.5000
" />
<path d="M222.7605 130.7856
L222.7890 130.7856
" />
<path d="M328.4858 73.7865
L328.4858 73.7713
" />
<path d="M291.7977 75.0984
L290.4858 73.7865
" />
<path d="M299.9841 43.2120
L299.9660 43.2120
" />
<path d="M260.6977 72.9978
L262.7197 70.9758
" />
<path d="M322.5105 73.7856
L322.5390 73.7856
" />
<path d="M282.2977 56.0984
L280.9858 54.7865
" />
<path d="M353.5477 132.0984
L352.2358 130.7865
" />
<path d="M315.5477 113.0984
L314.2358 111.7865
" />
<path d="M351.5977 72.2984
L350.2878 70.9885
" />
<path d="M241.6977 72.9978
L243.7197 70.9758
" />
<path d="M327.2605 130.7856
L327.2890 130.7856
" />
<path d="M239.5477 113.0984
L238.2358 111.7865
" />
<path d="M314.9697 89.9758
L314.9697 89.9764
" />
<path d="M305.4697 108.9758
L305.4697 108.9764
" />
<path d="M308.2688 111.7773
L308.2688 111.7763
" />
<path d="M276.2358 111.7865
L276.2358 111.7713
" />
<path d="M286.4697 108.9758
L286.4697 108.9764
" />
<path d="M281.7197 70.9758
L281.7197 70.9764
" />
<path d="M310.9977 56.7984
L313.0105 54.7856
" />
<path d="M337.9841 43.2120
L337.9660 43.2120
" />
<path d="M276.2341 100.2120
L276.2160 100.2120
" />
<path d="M264.7878 51.9885
L264.7707 51.9885
" />
<path d="M326.5378 89.9885
L326.5207 89.9885
" />
<path d="M253.7977 75.0984
L252.4858 73.7865
" />
<path d="M342.7341 81.2120
L342.7160 81.2120
" />
<path d="M342.7358 92.7865
L342.7358 92.7713
" />
<path d="M302.7878 51.9885
L302.7707 51.9885
" />
<path d="M284.5105 73.7856
L284.5390 73.7856
" />
<path d="M261.3477 110.2984
L260.0378 108.9885
" />
<path d="M270.1977 53.9978
L272.2197 51.9758
" />
<path d="M356.9858 54.7865
L356.9858 54.7713
" />
<path d="M277.5477 113.0984
L276.2358 111.7865
" />
<path d="M295.2358 111.7865
L295.2358 111.7713
" />
<path d="M293.9477 91.9984
L293.9477 91.9978
" />
<path d="M225.5000 114.0000
L225.5000 103.5000
" />
<path d="M306.2477 132.7984
L308.2605 130.7856
" />
<path d="M274.2878 70.9885
L274.2707 70.9885
" />
<path d="M304.0977 53.2984
L302.7878 51.9885
" />
<path d="M284.5188 73.7773
L284.5188 73.7763
" />
<path d="M298.6977 72.9978
L300.7197 70.9758
" />
<path d="M285.7341 81.2120
L285.7160 81.2120
" />
<path d="M220.7477 132.7984
L222.7605 130.7856
" />
<path d="M336.7605 92.7856
L336.7890 92.7856
" />
<path d="M320.4977 75.7984
L322.5105 73.7856
" />
<path d="M262.7197 70.9758
L262.7197 70.9764
" />
<path d="M293.2878 70.9885
L293.2707 70.9885
" />
<path d="M229.4697 108.9758
L229.4697 108.9764
" />
<path d="M231.5378 127.9885
L231.5207 127.9885
" />
<path d="M227.4477 110.9984
L227.4477 110.9978
" />
<path d="M331.9477 91.9978
L333.9697 89.9758
" />
<path d="M346.1977 53.9984
L346.1977 53.9978
" />
<path d="M243.7197 70.9758
L243.7197 70.9764
" />
<path d="M275.0105 54.7856
L275.0390 54.7856
" />
<path d="M228.7358 130.7865
L228.7358 130.7713
" />
<path d="M332.0105 54.7856
L332.0390 54.7856
" />
<path d="M291.9977 56.7984
L294.0105 54.7856
" />
<path d="M313.0188 54.7773
L313.0188 54.7763
" />
<path d="M225.5000 103.5000
L235.0000 94.0000
" />
<path d="M295.2341 100.2120
L295.2160 100.2120
" />
<path d="M253.9977 56.7984
L256.0105 54.7856
" />
<path d="M235.0000 94.0000
L235.0000 84.5000
" />
<path d="M238.2358 111.7865
L238.2358 111.7713
" />
<path d="M239.5000 66.5000
L249.0000 57.0000
" />
<path d="M256.0105 54.7856
L256.0390 54.7856
" />
<path d="M374.0000 137.0000
L212.0000 137.0000
" />
<path d="M303.4477 129.9984
L303.4477 129.9978
" />
<path d="M303.4477 110.9984
L303.4477 110.9978
" />
<path d="M361.0977 53.2984
L359.7878 51.9885
" />
<path d="M266.7358 92.7865
L266.7358 92.7713
" />
<path d="M280.3477 110.2984
L279.0378 108.9885
" />
<path d="M280.9858 54.7865
L280.9858 54.7713
" />
<path d="M268.2477 113.7984
L270.2605 111.7856
" />
<path d="M277.7477 94.7984
L279.7605 92.7856
" />
<path d="M265.5188 73.7773
L265.5188 73.7763
" />
<path d="M313.5977 72.2984
L312.2878 70.9885
" />
<path d="M329.7977 75.0984
L328.4858 73.7865
" />
<path d="M343.4697 127.9758
L343.4697 127.9764
" />
<path d="M336.6977 72.9984
L336.6977 72.9978
" />
<path d="M295.9697 89.9758
L295.9697 89.9764
" />
<path d="M257.2358 111.7865
L257.2358 111.7713
" />
<path d="M341.5188 73.7773
L341.5188 73.7763
" />
<path d="M279.7605 92.7856
L279.7890 92.7856
" />
<path d="M318.3477 129.2984
L317.0378 127.9885
" />
<path d="M279.6977 72.9978
L281.7197 70.9758
" />
<path d="M308.2605 130.7856
L308.2890 130.7856
" />
<path d="M275.0188 54.7773
L275.0188 54.7763
" />
<path d="M334.5477 132.0984
L333.2358 130.7865
" />
<path d="M327.1977 110.9984
L327.1977 110.9978
" />
<path d="M287.2477 113.7984
L289.2605 111.7856
" />
<path d="M242.3477 110.2984
L241.0378 108.9885
" />
<path d="M323.7341 81.2120
L323.7160 81.2120
" />
<path d="M230.0477 132.0984
L228.7358 130.7865
" />
<path d="M333.2341 119.2120
L333.2160 119.2120
" />
<path d="M249.0477 94.0984
L247.7358 92.7865
" />
<path d="M310.2197 51.9758
L310.2197 51.9764
" />
<path d="M337.9841 100.2120
L337.9660 100.2120
" />
<path d="M217.9477 129.9978
L219.9697 127.9758
" />
<path d="M222.7688 130.7773
L222.7688 130.7763
" />
<path d="M291.2197 51.9758
L291.2197 51.9764
" />
<path d="M332.0105 111.7856
L332.0390 111.7856
" />
<path d="M318.9841 43.2120
L318.9660 43.2120
" />
<path d="M310.7977 75.0984
L309.4858 73.7865
" />
<path d="M294.0105 54.7856
L294.0390 54.7856
" />
<path d="M346.8477 91.2984
L345.5378 89.9885
" />
<path d="M260.7605 92.7856
L260.7890 92.7856
" />
<path d="M314.2341 100.2120
L314.2160 100.2120
" />
<path d="M318.3477 110.2984
L317.0378 108.9885
" />
<path d="M271.4841 62.2120
L271.4660 62.2120
" />
<path d="M244.4977 75.7984
L246.5105 73.7856
" />
<path d="M255.9477 91.9978
L257.9697 89.9758
" />
<path d="M296.5477 113.0984
L295.2358 111.7865
" />
<path d="M344.0477 94.0984
L342.7358 92.7865
" />
<path d="M328.4841 62.2120
L328.4660 62.2120
" />
<path d="M246.5188 73.7773
L246.5188 73.7763
" />
<path d="M331.2878 70.9885
L331.2707 70.9885
" />
<path d="M304.7358 92.7865
L304.7358 92.7713
" />
<path d="M289.2605 111.7856
L289.2890 111.7856
" />
<path d="M342.0977 53.2984
L340.7878 51.9885
" />
<path d="M253.0000 37.0000
L374.0000 37.0000
" />
<path d="M294.0188 54.7773
L294.0188 54.7763
" />
<path d="M336.7688 92.7773
L336.7688 92.7763
" />
<path d="M327.1977 53.9984
L327.1977 53.9978
" />
<path d="M323.7358 92.7865
L323.7358 92.7713
" />
<path d="M272.2197 51.9758
L272.2197 51.9764
" />
<path d="M312.2878 70.9885
L312.2707 70.9885
" />
<path d="M339.2977 113.0984
L337.9858 111.7865
" />
<path d="M236.9477 91.9978
L238.9697 89.9758
" />
<path d="M257.2341 100.2120
L257.2160 100.2120
" />
<path d="M228.7341 119.2120
L228.7160 119.2120
" />
<path d="M246.4477 110.9984
L246.4477 110.9978
" />
<path d="M227.4477 110.9978
L229.4697 108.9758
" />
<path d="M325.2477 132.7984
L327.2605 130.7856
" />
<path d="M284.4477 110.9978
L286.4697 108.9758
" />
<path d="M274.9477 91.9984
L274.9477 91.9978
" />
<path d="M263.2977 56.0984
L261.9858 54.7865
" />
<path d="M260.0378 108.9885
L260.0207 108.9885
" />
<path d="M327.8477 91.2984
L326.5378 89.9885
" />
<path d="M312.9477 91.9978
L314.9697 89.9758
" />
<path d="M232.2605 111.7856
L232.2890 111.7856
" />
<path d="M289.1977 53.9978
L291.2197 51.9758
" />
<path d="M287.0477 94.0984
L285.7358 92.7865
" />
<path d="M351.0105 54.7856
L351.0390 54.7856
" />
<path d="M241.6977 72.9984
L241.6977 72.9978
" />
<path d="M323.0977 53.2984
L321.7878 51.9885
" />
<path d="M251.1977 53.9978
L253.2197 51.9758
" />
<path d="M253.0000 41.5000
L253.0000 37.0000
" />
<path d="M321.7878 51.9885
L321.7707 51.9885
" />
<path d="M342.0977 110.2984
L340.7878 108.9885
" />
<path d="M280.9841 43.2120
L280.9660 43.2120
" />
<path d="M327.1977 110.9978
L329.2197 108.9758
" />
<path d="M298.7605 92.7856
L298.7890 92.7856
" />
<path d="M329.2197 51.9758
L329.2197 51.9764
" />
<path d="M298.0378 108.9885
L298.0207 108.9885
" />
<path d="M356.9841 43.2120
L356.9660 43.2120
" />
<path d="M289.8477 91.2984
L288.5378 89.9885
" />
<path d="M270.2688 111.7773
L270.2688 111.7763
" />
<path d="M351.0188 54.7773
L351.0188 54.7763
" />
<path d="M339.4977 75.7984
L341.5105 73.7856
" />
<path d="M260.6977 72.9984
L260.6977 72.9978
" />
<path d="M350.2878 70.9885
L350.2707 70.9885
" />
<path d="M241.7605 92.7856
L241.7890 92.7856
" />
<path d="M303.5188 73.7773
L303.5188 73.7763
" />
<path d="M272.7977 75.0984
L271.4858 73.7865
" />
<path d="M265.4477 110.9984
L265.4477 110.9978
" />
<path d="M337.9858 54.7865
L337.9858 54.7713
" />
<path d="M265.4477 110.9978
L267.4697 108.9758
" />
<path d="M308.1977 53.9984
L308.1977 53.9978
" />
<path d="M312.9477 91.9984
L312.9477 91.9978
" />
<path d="M313.0105 54.7856
L313.0390 54.7856
" />
<path d="M309.4858 73.7865
L309.4858 73.7713
" />
<path d="M263.4977 75.7984
L265.5105 73.7856
" />
<path d="M301.4977 75.7984
L303.5105 73.7856
" />
<path d="M333.9697 89.9758
L333.9697 89.9764
" />
<path d="M267.4697 108.9758
L267.4697 108.9764
" />
<path d="M339.2977 56.0984
L337.9858 54.7865
" />
<path d="M249.0000 57.0000
L249.0000 45.5000
" />
<path d="M317.6977 72.9984
L317.6977 72.9978
" />
<path d="M239.7477 94.7984
L241.7605 92.7856
" />
<path d="M317.0378 108.9885
L317.0207 108.9885
" />
<path d="M301.2977 56.0984
L299.9858 54.7865
" />
<path d="M219.9697 127.9758
L219.9697 127.9764
" />
<path d="M251.1977 53.9984
L251.1977 53.9978
" />
<path d="M212.0000 137.0000
L212.0000 127.5000
" />
<path d="M340.7878 51.9885
L340.7707 51.9885
" />
<path d="M337.3477 129.2984
L336.0378 127.9885
" />
<path d="M359.7878 51.9885
L359.7707 51.9885
" />
<path d="M256.5977 72.2984
L255.2878 70.9885
" />
<path d="M236.9477 91.9984
L236.9477 91.9978
" />
<path d="M318.9858 54.7865
L318.9858 54.7713
" />
<path d="M288.5378 89.9885
L288.5207 89.9885
" />
<path d="M327.2688 130.7773
L327.2688 130.7763
" />
<path d="M314.2358 130.7865
L314.2358 130.7713
" />
</g> 
</svg>
